<svg width="280" height="265" viewBox="0 0 280 265" fill="none" xmlns="http://www.w3.org/2000/svg">
<path d="M3.72788 4.24438C4.47182 4.24438 5.09314 4.31387 5.59183 4.45285C6.09869 4.59182 6.47883 4.82482 6.73226 5.15182C6.99387 5.47066 7.12467 5.89577 7.12467 6.42715C7.12467 6.77051 7.06336 7.07708 6.94073 7.34686C6.8181 7.60847 6.63825 7.8292 6.40117 8.00905C6.17226 8.18073 5.88613 8.29518 5.54277 8.35241V8.41372C5.89431 8.47095 6.20905 8.57723 6.48701 8.73255C6.76496 8.87971 6.98569 9.09635 7.1492 9.38248C7.3127 9.66861 7.39445 10.0406 7.39445 10.4984C7.39445 11.0298 7.26774 11.4835 7.01431 11.8596C6.76905 12.2274 6.41343 12.5095 5.94745 12.7057C5.48964 12.9019 4.9419 13 4.30423 13H1.16496V4.24438H3.72788ZM3.94861 7.89869C4.63533 7.89869 5.1054 7.78832 5.35883 7.56759C5.62044 7.34686 5.75124 7.01985 5.75124 6.58657C5.75124 6.14511 5.59591 5.83036 5.28526 5.64234C4.9746 5.45431 4.48 5.36029 3.80146 5.36029H2.48934V7.89869H3.94861ZM2.48934 8.97781V11.8964H4.09577C4.80701 11.8964 5.30161 11.7574 5.57956 11.4794C5.85752 11.2015 5.9965 10.8336 5.9965 10.3758C5.9965 10.0978 5.93518 9.85255 5.81256 9.64C5.68993 9.42745 5.48146 9.26394 5.18715 9.14949C4.90102 9.03504 4.50861 8.97781 4.00993 8.97781H2.48934ZM11.6282 6.26774C12.462 6.26774 13.0834 6.45168 13.4921 6.81956C13.9009 7.17927 14.1053 7.74745 14.1053 8.52409V13H13.1855L12.928 12.0803H12.879C12.6909 12.3174 12.4947 12.5136 12.2904 12.6689C12.0942 12.8242 11.8653 12.9387 11.6036 13.0123C11.3502 13.0858 11.0396 13.1226 10.6717 13.1226C10.2793 13.1226 9.92365 13.0531 9.60482 12.9142C9.29416 12.767 9.04891 12.5463 8.86905 12.252C8.6892 11.9495 8.59927 11.5734 8.59927 11.1238C8.59927 10.4534 8.8527 9.94248 9.35956 9.59095C9.8746 9.23942 10.6553 9.0473 11.7018 9.0146L12.8299 8.97781V8.60993C12.8299 8.11942 12.7196 7.77606 12.4988 7.57985C12.2781 7.38365 11.9674 7.28555 11.5669 7.28555C11.2235 7.28555 10.8965 7.3346 10.5858 7.4327C10.2752 7.5308 9.98088 7.64934 9.70292 7.78832L9.28599 6.84409C9.59664 6.68058 9.95226 6.54569 10.3528 6.43942C10.7616 6.32496 11.1867 6.26774 11.6282 6.26774ZM11.9347 9.84847C11.1826 9.88117 10.6594 10.0079 10.3651 10.2286C10.079 10.4412 9.93591 10.7436 9.93591 11.1361C9.93591 11.4794 10.0381 11.7288 10.2425 11.8841C10.455 12.0394 10.7207 12.1171 11.0396 12.1171C11.5546 12.1171 11.9797 11.974 12.3149 11.6879C12.6501 11.4018 12.8177 10.9726 12.8177 10.4003V9.82394L11.9347 9.84847ZM20.3006 6.39036V7.4327H17.4066V13H16.1068V6.39036H20.3006ZM24.1424 6.26774C24.9763 6.26774 25.5976 6.45168 26.0064 6.81956C26.4151 7.17927 26.6195 7.74745 26.6195 8.52409V13H25.6998L25.4423 12.0803H25.3932C25.2052 12.3174 25.009 12.5136 24.8046 12.6689C24.6084 12.8242 24.3795 12.9387 24.1179 13.0123C23.8645 13.0858 23.5538 13.1226 23.1859 13.1226C22.7935 13.1226 22.4379 13.0531 22.1191 12.9142C21.8084 12.767 21.5632 12.5463 21.3833 12.252C21.2035 11.9495 21.1135 11.5734 21.1135 11.1238C21.1135 10.4534 21.367 9.94248 21.8738 9.59095C22.3889 9.23942 23.1696 9.0473 24.216 9.0146L25.3442 8.97781V8.60993C25.3442 8.11942 25.2338 7.77606 25.0131 7.57985C24.7924 7.38365 24.4817 7.28555 24.0811 7.28555C23.7378 7.28555 23.4108 7.3346 23.1001 7.4327C22.7894 7.5308 22.4951 7.64934 22.2172 7.78832L21.8002 6.84409C22.1109 6.68058 22.4665 6.54569 22.8671 6.43942C23.2759 6.32496 23.701 6.26774 24.1424 6.26774ZM24.449 9.84847C23.6969 9.88117 23.1737 10.0079 22.8794 10.2286C22.5932 10.4412 22.4502 10.7436 22.4502 11.1361C22.4502 11.4794 22.5524 11.7288 22.7567 11.8841C22.9693 12.0394 23.235 12.1171 23.5538 12.1171C24.0689 12.1171 24.494 11.974 24.8291 11.6879C25.1643 11.4018 25.3319 10.9726 25.3319 10.4003V9.82394L24.449 9.84847Z" fill="white"/>
<path d="M0.652356 25.2816H4.13159V26.1949H0.652356V25.2816ZM10.5463 29V26.9451H7.27364V26.0209L10.318 21.3892H11.4596V26.0318H12.2152V26.9451H11.4596V29H10.5463ZM8.34459 26.0209L10.5463 26.0318L10.53 22.6721L8.34459 26.0209ZM13.5183 29.1413C13.3806 29.1413 13.2628 29.0924 13.1649 28.9946C13.0707 28.8967 13.0236 28.7771 13.0236 28.6358C13.0236 28.5017 13.0707 28.3857 13.1649 28.2878C13.2628 28.19 13.3806 28.1411 13.5183 28.1411C13.6597 28.1411 13.7792 28.19 13.8771 28.2878C13.975 28.3857 14.0239 28.5017 14.0239 28.6358C14.0239 28.7771 13.975 28.8967 13.8771 28.9946C13.7792 29.0924 13.6597 29.1413 13.5183 29.1413ZM17.6558 29.1413C17.2028 29.1413 16.7969 29.0399 16.4381 28.8369C16.0793 28.6303 15.7712 28.3458 15.5139 27.9834C15.2566 27.621 15.0609 27.2024 14.9268 26.7276C14.7927 26.2492 14.7257 25.7382 14.7257 25.1946C14.7257 24.651 14.7927 24.1399 14.9268 23.6616C15.0609 23.1832 15.2566 22.7646 15.5139 22.4058C15.7712 22.0433 16.0793 21.7607 16.4381 21.5577C16.7969 21.3511 17.2028 21.2478 17.6558 21.2478C18.1052 21.2478 18.5093 21.3511 18.8681 21.5577C19.2305 21.7607 19.5368 22.0433 19.7868 22.4058C20.0405 22.7646 20.2344 23.1832 20.3685 23.6616C20.5063 24.1399 20.5751 24.651 20.5751 25.1946C20.5751 25.7382 20.5063 26.2492 20.3685 26.7276C20.2344 27.2024 20.0405 27.621 19.7868 27.9834C19.5368 28.3458 19.2305 28.6303 18.8681 28.8369C18.5093 29.0399 18.1052 29.1413 17.6558 29.1413ZM17.6558 28.228C18.1088 28.228 18.4876 28.0885 18.792 27.8095C19.1001 27.5268 19.3302 27.1553 19.4824 26.695C19.6346 26.2347 19.7107 25.7346 19.7107 25.1946C19.7107 24.6256 19.631 24.1128 19.4715 23.6561C19.3157 23.1958 19.0838 22.8316 18.7757 22.5634C18.4713 22.2952 18.098 22.1611 17.6558 22.1611C17.3079 22.1611 17.0035 22.2427 16.7425 22.4058C16.4852 22.5689 16.2714 22.7917 16.101 23.0744C15.9307 23.3571 15.802 23.6815 15.7151 24.0475C15.6317 24.41 15.59 24.7923 15.59 25.1946C15.59 25.7346 15.6679 26.2365 15.8238 26.7004C15.9796 27.1607 16.2098 27.5304 16.5142 27.8095C16.8223 28.0885 17.2028 28.228 17.6558 28.228ZM27.4272 23.1397H28.6884L26.2421 25.9557L28.895 29H27.5685L25.0026 26.0318V29H23.8501V23.1397H25.0026V25.9883L27.4272 23.1397ZM33.3291 23.1397V24.0638H30.7632V29H29.6107V23.1397H33.3291Z" fill="#F59999"/>
<g clip-path="url(#clip0_4773_90489)">
<path d="M39.1681 29.3574L36.7581 26.9474M39.1681 29.3574L41.5781 26.9474M39.1681 29.3574L39.1681 23.734" stroke="#F59999" stroke-width="0.803308" stroke-linecap="round" stroke-linejoin="round"/>
</g>
<g clip-path="url(#clip1_4773_90489)">
<path d="M11.8769 259.011C11.521 259.011 11.202 258.932 10.9201 258.772C10.6382 258.61 10.3962 258.386 10.194 258.102C9.99181 257.817 9.83804 257.488 9.73268 257.115C9.62732 256.739 9.57464 256.338 9.57464 255.91C9.57464 255.483 9.62732 255.082 9.73268 254.706C9.83804 254.33 9.99181 254.001 10.194 253.719C10.3962 253.434 10.6382 253.212 10.9201 253.053C11.202 252.891 11.521 252.809 11.8769 252.809C12.23 252.809 12.5475 252.891 12.8294 253.053C13.1142 253.212 13.3548 253.434 13.5513 253.719C13.7506 254.001 13.903 254.33 14.0083 254.706C14.1165 255.082 14.1706 255.483 14.1706 255.91C14.1706 256.338 14.1165 256.739 14.0083 257.115C13.903 257.488 13.7506 257.817 13.5513 258.102C13.3548 258.386 13.1142 258.61 12.8294 258.772C12.5475 258.932 12.23 259.011 11.8769 259.011ZM11.8769 258.294C12.2329 258.294 12.5304 258.184 12.7696 257.965C13.0117 257.743 13.1925 257.451 13.3121 257.089C13.4317 256.728 13.4915 256.335 13.4915 255.91C13.4915 255.463 13.4288 255.06 13.3036 254.702C13.1811 254.34 12.9989 254.054 12.7568 253.843C12.5176 253.632 12.2243 253.527 11.8769 253.527C11.6035 253.527 11.3644 253.591 11.1593 253.719C10.9571 253.847 10.7891 254.022 10.6553 254.245C10.5215 254.467 10.4204 254.722 10.352 255.009C10.2865 255.294 10.2538 255.594 10.2538 255.91C10.2538 256.335 10.315 256.729 10.4375 257.094C10.5599 257.455 10.7407 257.746 10.9799 257.965C11.222 258.184 11.521 258.294 11.8769 258.294ZM15.4363 258.9V253.638H14.7657L14.9665 252.92H16.1539V258.9H15.4363ZM17.5654 259.011C17.4572 259.011 17.3646 258.973 17.2878 258.896C17.2137 258.819 17.1767 258.725 17.1767 258.614C17.1767 258.509 17.2137 258.418 17.2878 258.341C17.3646 258.264 17.4572 258.226 17.5654 258.226C17.6764 258.226 17.7704 258.264 17.8473 258.341C17.9242 258.418 17.9626 258.509 17.9626 258.614C17.9626 258.725 17.9242 258.819 17.8473 258.896C17.7704 258.973 17.6764 259.011 17.5654 259.011ZM19.4908 258.9V253.638H18.8202L19.0209 252.92H20.2084V258.9H19.4908ZM21.2312 258.9V258.264C21.4504 258.067 21.6967 257.848 21.9701 257.606C22.2435 257.361 22.5154 257.106 22.786 256.842C23.0593 256.574 23.3099 256.309 23.5377 256.047C23.7655 255.785 23.9492 255.537 24.0887 255.304C24.2283 255.068 24.298 254.861 24.298 254.685C24.298 254.474 24.2468 254.282 24.1442 254.108C24.0417 253.931 23.9036 253.79 23.7299 253.685C23.5591 253.58 23.3683 253.527 23.1576 253.527C22.9468 253.527 22.7532 253.58 22.5767 253.685C22.403 253.79 22.2634 253.931 22.1581 254.108C22.0555 254.282 22.0043 254.474 22.0043 254.685H21.2867C21.2867 254.334 21.3721 254.018 21.543 253.736C21.7138 253.452 21.9402 253.227 22.2221 253.061C22.504 252.893 22.8159 252.809 23.1576 252.809C23.4993 252.809 23.8097 252.893 24.0887 253.061C24.3706 253.229 24.5956 253.456 24.7636 253.741C24.9316 254.022 25.0156 254.337 25.0156 254.685C25.0156 254.884 24.9672 255.099 24.8704 255.33C24.7736 255.557 24.6412 255.792 24.4731 256.034C24.3051 256.276 24.1143 256.521 23.9008 256.769C23.6872 257.014 23.4623 257.256 23.2259 257.495C22.9896 257.734 22.7546 257.964 22.5211 258.183H25.0925V258.9H21.2312Z" fill="#ADABB5"/>
<path d="M46.7382 259.011C46.3823 259.011 46.0634 258.932 45.7815 258.772C45.4995 258.61 45.2575 258.386 45.0553 258.102C44.8531 257.817 44.6994 257.488 44.594 257.115C44.4887 256.739 44.436 256.338 44.436 255.91C44.436 255.483 44.4887 255.082 44.594 254.706C44.6994 254.33 44.8531 254.001 45.0553 253.719C45.2575 253.434 45.4995 253.212 45.7815 253.053C46.0634 252.891 46.3823 252.809 46.7382 252.809C47.0913 252.809 47.4089 252.891 47.6908 253.053C47.9755 253.212 48.2161 253.434 48.4126 253.719C48.612 254.001 48.7643 254.33 48.8697 254.706C48.9779 255.082 49.032 255.483 49.032 255.91C49.032 256.338 48.9779 256.739 48.8697 257.115C48.7643 257.488 48.612 257.817 48.4126 258.102C48.2161 258.386 47.9755 258.61 47.6908 258.772C47.4089 258.932 47.0913 259.011 46.7382 259.011ZM46.7382 258.294C47.0942 258.294 47.3918 258.184 47.631 257.965C47.873 257.743 48.0538 257.451 48.1734 257.089C48.293 256.728 48.3528 256.335 48.3528 255.91C48.3528 255.463 48.2902 255.06 48.1649 254.702C48.0424 254.34 47.8602 254.054 47.6181 253.843C47.379 253.632 47.0856 253.527 46.7382 253.527C46.4649 253.527 46.2257 253.591 46.0207 253.719C45.8185 253.847 45.6505 254.022 45.5166 254.245C45.3828 254.467 45.2817 254.722 45.2134 255.009C45.1479 255.294 45.1151 255.594 45.1151 255.91C45.1151 256.335 45.1763 256.729 45.2988 257.094C45.4212 257.455 45.6021 257.746 45.8413 257.965C46.0833 258.184 46.3823 258.294 46.7382 258.294ZM52.1984 258.9V257.286H49.627V256.56L52.019 252.92H52.916V256.568H53.5097V257.286H52.916V258.9H52.1984ZM50.4685 256.56L52.1984 256.568L52.1856 253.929L50.4685 256.56ZM54.7543 259.011C54.6461 259.011 54.5535 258.973 54.4766 258.896C54.4026 258.819 54.3656 258.725 54.3656 258.614C54.3656 258.509 54.4026 258.418 54.4766 258.341C54.5535 258.264 54.6461 258.226 54.7543 258.226C54.8653 258.226 54.9593 258.264 55.0362 258.341C55.1131 258.418 55.1515 258.509 55.1515 258.614C55.1515 258.725 55.1131 258.819 55.0362 258.896C54.9593 258.973 54.8653 259.011 54.7543 259.011ZM56.6797 258.9V253.638H56.0091L56.2098 252.92H57.3973V258.9H56.6797ZM58.4201 258.9V258.264C58.6393 258.067 58.8856 257.848 59.159 257.606C59.4324 257.361 59.7043 257.106 59.9748 256.842C60.2482 256.574 60.4988 256.309 60.7266 256.047C60.9544 255.785 61.1381 255.537 61.2776 255.304C61.4171 255.068 61.4869 254.861 61.4869 254.685C61.4869 254.474 61.4357 254.282 61.3331 254.108C61.2306 253.931 61.0925 253.79 60.9188 253.685C60.748 253.58 60.5572 253.527 60.3465 253.527C60.1357 253.527 59.9421 253.58 59.7655 253.685C59.5918 253.79 59.4523 253.931 59.347 254.108C59.2444 254.282 59.1932 254.474 59.1932 254.685H58.4756C58.4756 254.334 58.561 254.018 58.7319 253.736C58.9027 253.452 59.1291 253.227 59.411 253.061C59.6929 252.893 60.0047 252.809 60.3465 252.809C60.6882 252.809 60.9986 252.893 61.2776 253.061C61.5595 253.229 61.7845 253.456 61.9525 253.741C62.1205 254.022 62.2045 254.337 62.2045 254.685C62.2045 254.884 62.1561 255.099 62.0593 255.33C61.9625 255.557 61.83 255.792 61.662 256.034C61.494 256.276 61.3032 256.521 61.0897 256.769C60.8761 257.014 60.6511 257.256 60.4148 257.495C60.1784 257.734 59.9435 257.964 59.71 258.183H62.2814V258.9H58.4201Z" fill="#ADABB5"/>
<path d="M83.6015 259.011C83.2456 259.011 82.9266 258.932 82.6447 258.772C82.3628 258.61 82.1208 258.386 81.9186 258.102C81.7164 257.817 81.5627 257.488 81.4573 257.115C81.3519 256.739 81.2993 256.338 81.2993 255.91C81.2993 255.483 81.3519 255.082 81.4573 254.706C81.5627 254.33 81.7164 254.001 81.9186 253.719C82.1208 253.434 82.3628 253.212 82.6447 253.053C82.9266 252.891 83.2456 252.809 83.6015 252.809C83.9546 252.809 84.2721 252.891 84.554 253.053C84.8388 253.212 85.0794 253.434 85.2759 253.719C85.4752 254.001 85.6276 254.33 85.7329 254.706C85.8412 255.082 85.8953 255.483 85.8953 255.91C85.8953 256.338 85.8412 256.739 85.7329 257.115C85.6276 257.488 85.4752 257.817 85.2759 258.102C85.0794 258.386 84.8388 258.61 84.554 258.772C84.2721 258.932 83.9546 259.011 83.6015 259.011ZM83.6015 258.294C83.9575 258.294 84.255 258.184 84.4942 257.965C84.7363 257.743 84.9171 257.451 85.0367 257.089C85.1563 256.728 85.2161 256.335 85.2161 255.91C85.2161 255.463 85.1535 255.06 85.0282 254.702C84.9057 254.34 84.7235 254.054 84.4814 253.843C84.2422 253.632 83.9489 253.527 83.6015 253.527C83.3282 253.527 83.089 253.591 82.8839 253.719C82.6818 253.847 82.5137 254.022 82.3799 254.245C82.2461 254.467 82.145 254.722 82.0766 255.009C82.0111 255.294 81.9784 255.594 81.9784 255.91C81.9784 256.335 82.0396 256.729 82.1621 257.094C82.2845 257.455 82.4653 257.746 82.7045 257.965C82.9466 258.184 83.2456 258.294 83.6015 258.294ZM86.7167 258.9L89.7494 253.638H86.3195V252.92H90.578V253.638L87.5368 258.9H86.7167ZM91.4757 259.011C91.3675 259.011 91.275 258.973 91.1981 258.896C91.1241 258.819 91.087 258.725 91.087 258.614C91.087 258.509 91.1241 258.418 91.1981 258.341C91.275 258.264 91.3675 258.226 91.4757 258.226C91.5868 258.226 91.6808 258.264 91.7577 258.341C91.8345 258.418 91.873 258.509 91.873 258.614C91.873 258.725 91.8345 258.819 91.7577 258.896C91.6808 258.973 91.5868 259.011 91.4757 259.011ZM93.4011 258.9V253.638H92.7305L92.9313 252.92H94.1187V258.9H93.4011ZM95.1415 258.9V258.264C95.3608 258.067 95.6071 257.848 95.8805 257.606C96.1538 257.361 96.4258 257.106 96.6963 256.842C96.9697 256.574 97.2203 256.309 97.4481 256.047C97.6759 255.785 97.8595 255.537 97.9991 255.304C98.1386 255.068 98.2084 254.861 98.2084 254.685C98.2084 254.474 98.1571 254.282 98.0546 254.108C97.9521 253.931 97.814 253.79 97.6403 253.685C97.4694 253.58 97.2786 253.527 97.0679 253.527C96.8572 253.527 96.6636 253.58 96.487 253.685C96.3133 253.79 96.1738 253.931 96.0684 254.108C95.9659 254.282 95.9146 254.474 95.9146 254.685H95.1971C95.1971 254.334 95.2825 254.018 95.4533 253.736C95.6242 253.452 95.8506 253.227 96.1325 253.061C96.4144 252.893 96.7262 252.809 97.0679 252.809C97.4096 252.809 97.72 252.893 97.9991 253.061C98.281 253.229 98.5059 253.456 98.674 253.741C98.842 254.022 98.926 254.337 98.926 254.685C98.926 254.884 98.8776 255.099 98.7807 255.33C98.6839 255.557 98.5515 255.792 98.3835 256.034C98.2155 256.276 98.0247 256.521 97.8111 256.769C97.5976 257.014 97.3726 257.256 97.1363 257.495C96.8999 257.734 96.665 257.964 96.4315 258.183H99.0028V258.9H95.1415Z" fill="#ADABB5"/>
<path d="M120.463 259.011C120.107 259.011 119.788 258.932 119.506 258.772C119.224 258.61 118.982 258.386 118.78 258.102C118.578 257.817 118.424 257.488 118.319 257.115C118.213 256.739 118.161 256.338 118.161 255.91C118.161 255.483 118.213 255.082 118.319 254.706C118.424 254.33 118.578 254.001 118.78 253.719C118.982 253.434 119.224 253.212 119.506 253.053C119.788 252.891 120.107 252.809 120.463 252.809C120.816 252.809 121.133 252.891 121.415 253.053C121.7 253.212 121.941 253.434 122.137 253.719C122.337 254.001 122.489 254.33 122.594 254.706C122.702 255.082 122.757 255.483 122.757 255.91C122.757 256.338 122.702 256.739 122.594 257.115C122.489 257.488 122.337 257.817 122.137 258.102C121.941 258.386 121.7 258.61 121.415 258.772C121.133 258.932 120.816 259.011 120.463 259.011ZM120.463 258.294C120.819 258.294 121.116 258.184 121.356 257.965C121.598 257.743 121.778 257.451 121.898 257.089C122.018 256.728 122.077 256.335 122.077 255.91C122.077 255.463 122.015 255.06 121.889 254.702C121.767 254.34 121.585 254.054 121.343 253.843C121.104 253.632 120.81 253.527 120.463 253.527C120.189 253.527 119.95 253.591 119.745 253.719C119.543 253.847 119.375 254.022 119.241 254.245C119.107 254.467 119.006 254.722 118.938 255.009C118.872 255.294 118.84 255.594 118.84 255.91C118.84 256.335 118.901 256.729 119.023 257.094C119.146 257.455 119.327 257.746 119.566 257.965C119.808 258.184 120.107 258.294 120.463 258.294ZM125.278 259.011C124.922 259.011 124.597 258.93 124.304 258.768C124.014 258.606 123.782 258.389 123.608 258.119C123.437 257.845 123.352 257.544 123.352 257.213C123.352 256.906 123.433 256.624 123.595 256.367C123.757 256.108 123.97 255.903 124.232 255.752C124.018 255.616 123.841 255.435 123.702 255.21C123.565 254.982 123.497 254.736 123.497 254.471C123.497 254.163 123.577 253.884 123.736 253.634C123.898 253.383 124.113 253.184 124.381 253.036C124.652 252.885 124.951 252.809 125.278 252.809C125.606 252.809 125.903 252.885 126.171 253.036C126.441 253.184 126.656 253.383 126.816 253.634C126.978 253.884 127.059 254.163 127.059 254.471C127.059 254.736 126.991 254.982 126.854 255.21C126.717 255.435 126.54 255.616 126.32 255.752C126.591 255.903 126.806 256.108 126.965 256.367C127.128 256.624 127.209 256.906 127.209 257.213C127.209 257.541 127.122 257.841 126.948 258.114C126.774 258.388 126.541 258.606 126.248 258.768C125.957 258.93 125.634 259.011 125.278 259.011ZM125.278 258.294C125.494 258.294 125.69 258.245 125.863 258.149C126.04 258.052 126.181 257.922 126.286 257.76C126.391 257.595 126.444 257.413 126.444 257.213C126.444 257.011 126.391 256.829 126.286 256.666C126.181 256.504 126.04 256.375 125.863 256.278C125.69 256.181 125.494 256.133 125.278 256.133C125.064 256.133 124.869 256.181 124.693 256.278C124.516 256.375 124.375 256.504 124.27 256.666C124.165 256.829 124.112 257.011 124.112 257.213C124.112 257.413 124.165 257.595 124.27 257.76C124.375 257.922 124.516 258.052 124.693 258.149C124.869 258.245 125.064 258.294 125.278 258.294ZM125.278 255.415C125.466 255.415 125.637 255.372 125.791 255.287C125.944 255.201 126.067 255.087 126.158 254.945C126.252 254.803 126.299 254.645 126.299 254.471C126.299 254.294 126.252 254.136 126.158 253.997C126.067 253.854 125.944 253.741 125.791 253.655C125.637 253.57 125.466 253.527 125.278 253.527C125.09 253.527 124.919 253.57 124.765 253.655C124.612 253.741 124.488 253.854 124.394 253.997C124.303 254.136 124.257 254.294 124.257 254.471C124.257 254.645 124.303 254.803 124.394 254.945C124.488 255.087 124.612 255.201 124.765 255.287C124.919 255.372 125.09 255.415 125.278 255.415ZM128.279 259.011C128.17 259.011 128.078 258.973 128.001 258.896C127.927 258.819 127.89 258.725 127.89 258.614C127.89 258.509 127.927 258.418 128.001 258.341C128.078 258.264 128.17 258.226 128.279 258.226C128.39 258.226 128.484 258.264 128.561 258.341C128.637 258.418 128.676 258.509 128.676 258.614C128.676 258.725 128.637 258.819 128.561 258.896C128.484 258.973 128.39 259.011 128.279 259.011ZM130.204 258.9V253.638H129.533L129.734 252.92H130.922V258.9H130.204ZM131.944 258.9V258.264C132.164 258.067 132.41 257.848 132.683 257.606C132.957 257.361 133.229 257.106 133.499 256.842C133.773 256.574 134.023 256.309 134.251 256.047C134.479 255.785 134.662 255.537 134.802 255.304C134.942 255.068 135.011 254.861 135.011 254.685C135.011 254.474 134.96 254.282 134.858 254.108C134.755 253.931 134.617 253.79 134.443 253.685C134.272 253.58 134.082 253.527 133.871 253.527C133.66 253.527 133.466 253.58 133.29 253.685C133.116 253.79 132.977 253.931 132.871 254.108C132.769 254.282 132.718 254.474 132.718 254.685H132C132 254.334 132.085 254.018 132.256 253.736C132.427 253.452 132.654 253.227 132.935 253.061C133.217 252.893 133.529 252.809 133.871 252.809C134.213 252.809 134.523 252.893 134.802 253.061C135.084 253.229 135.309 253.456 135.477 253.741C135.645 254.022 135.729 254.337 135.729 254.685C135.729 254.884 135.68 255.099 135.584 255.33C135.487 255.557 135.354 255.792 135.186 256.034C135.018 256.276 134.828 256.521 134.614 256.769C134.4 257.014 134.176 257.256 133.939 257.495C133.703 257.734 133.468 257.964 133.234 258.183H135.806V258.9H131.944Z" fill="#ADABB5"/>
<path d="M155.78 258.9V253.638H155.109L155.31 252.92H156.497V258.9H155.78ZM157.52 258.9V258.264C157.74 258.067 157.986 257.848 158.259 257.606C158.533 257.361 158.805 257.106 159.075 256.842C159.348 256.574 159.599 256.309 159.827 256.047C160.055 255.785 160.238 255.537 160.378 255.304C160.517 255.068 160.587 254.861 160.587 254.685C160.587 254.474 160.536 254.282 160.433 254.108C160.331 253.931 160.193 253.79 160.019 253.685C159.848 253.58 159.657 253.527 159.447 253.527C159.236 253.527 159.042 253.58 158.866 253.685C158.692 253.79 158.553 253.931 158.447 254.108C158.345 254.282 158.293 254.474 158.293 254.685H157.576C157.576 254.334 157.661 254.018 157.832 253.736C158.003 253.452 158.229 253.227 158.511 253.061C158.793 252.893 159.105 252.809 159.447 252.809C159.788 252.809 160.099 252.893 160.378 253.061C160.66 253.229 160.885 253.456 161.053 253.741C161.221 254.022 161.305 254.337 161.305 254.685C161.305 254.884 161.256 255.099 161.159 255.33C161.063 255.557 160.93 255.792 160.762 256.034C160.594 256.276 160.403 256.521 160.19 256.769C159.976 257.014 159.751 257.256 159.515 257.495C159.279 257.734 159.044 257.964 158.81 258.183H161.382V258.9H157.52ZM162.623 259.011C162.514 259.011 162.422 258.973 162.345 258.896C162.271 258.819 162.234 258.725 162.234 258.614C162.234 258.509 162.271 258.418 162.345 258.341C162.422 258.264 162.514 258.226 162.623 258.226C162.734 258.226 162.828 258.264 162.904 258.341C162.981 258.418 163.02 258.509 163.02 258.614C163.02 258.725 162.981 258.819 162.904 258.896C162.828 258.973 162.734 259.011 162.623 259.011ZM164.548 258.9V253.638H163.877L164.078 252.92H165.265V258.9H164.548ZM166.288 258.9V258.264C166.508 258.067 166.754 257.848 167.027 257.606C167.301 257.361 167.573 257.106 167.843 256.842C168.116 256.574 168.367 256.309 168.595 256.047C168.823 255.785 169.006 255.537 169.146 255.304C169.285 255.068 169.355 254.861 169.355 254.685C169.355 254.474 169.304 254.282 169.201 254.108C169.099 253.931 168.961 253.79 168.787 253.685C168.616 253.58 168.425 253.527 168.215 253.527C168.004 253.527 167.81 253.58 167.634 253.685C167.46 253.79 167.321 253.931 167.215 254.108C167.113 254.282 167.061 254.474 167.061 254.685H166.344C166.344 254.334 166.429 254.018 166.6 253.736C166.771 253.452 166.997 253.227 167.279 253.061C167.561 252.893 167.873 252.809 168.215 252.809C168.556 252.809 168.867 252.893 169.146 253.061C169.428 253.229 169.653 253.456 169.821 253.741C169.989 254.022 170.073 254.337 170.073 254.685C170.073 254.884 170.024 255.099 169.928 255.33C169.831 255.557 169.698 255.792 169.53 256.034C169.362 256.276 169.171 256.521 168.958 256.769C168.744 257.014 168.519 257.256 168.283 257.495C168.047 257.734 167.812 257.964 167.578 258.183H170.15V258.9H166.288Z" fill="#ADABB5"/>
<path d="M189.641 258.9V253.638H188.971L189.171 252.92H190.359V258.9H189.641ZM193.159 259.011C192.797 259.011 192.475 258.93 192.193 258.768C191.914 258.603 191.695 258.384 191.535 258.11C191.376 257.834 191.296 257.528 191.296 257.192H192.014C192.014 257.394 192.061 257.579 192.155 257.747C192.249 257.912 192.381 258.045 192.552 258.144C192.723 258.244 192.925 258.294 193.159 258.294C193.361 258.294 193.549 258.244 193.722 258.144C193.899 258.045 194.041 257.912 194.149 257.747C194.258 257.579 194.312 257.394 194.312 257.192C194.312 256.938 194.246 256.728 194.115 256.56C193.987 256.389 193.808 256.262 193.577 256.18C193.349 256.094 193.089 256.051 192.795 256.051V255.475C193.2 255.475 193.523 255.391 193.765 255.223C194.01 255.055 194.132 254.807 194.132 254.48C194.132 254.306 194.085 254.146 193.991 254.001C193.897 253.856 193.774 253.741 193.62 253.655C193.469 253.567 193.307 253.523 193.133 253.523C192.956 253.523 192.787 253.567 192.625 253.655C192.462 253.741 192.33 253.856 192.227 254.001C192.125 254.146 192.074 254.306 192.074 254.48H191.356C191.356 254.249 191.403 254.032 191.497 253.83C191.594 253.628 191.725 253.45 191.89 253.296C192.058 253.143 192.247 253.023 192.458 252.938C192.669 252.849 192.891 252.805 193.124 252.805C193.429 252.805 193.712 252.881 193.974 253.032C194.236 253.182 194.447 253.385 194.607 253.638C194.769 253.891 194.85 254.172 194.85 254.48C194.85 254.756 194.78 255.011 194.641 255.244C194.501 255.478 194.312 255.641 194.073 255.735C194.28 255.806 194.456 255.918 194.598 256.068C194.74 256.217 194.847 256.387 194.918 256.581C194.992 256.775 195.029 256.978 195.029 257.192C195.029 257.525 194.943 257.83 194.769 258.106C194.598 258.382 194.37 258.603 194.085 258.768C193.803 258.93 193.495 259.011 193.159 259.011ZM196.017 259.011C195.908 259.011 195.816 258.973 195.739 258.896C195.665 258.819 195.628 258.725 195.628 258.614C195.628 258.509 195.665 258.418 195.739 258.341C195.816 258.264 195.908 258.226 196.017 258.226C196.128 258.226 196.222 258.264 196.299 258.341C196.375 258.418 196.414 258.509 196.414 258.614C196.414 258.725 196.375 258.819 196.299 258.896C196.222 258.973 196.128 259.011 196.017 259.011ZM197.942 258.9V253.638H197.271L197.472 252.92H198.66V258.9H197.942ZM199.682 258.9V258.264C199.902 258.067 200.148 257.848 200.421 257.606C200.695 257.361 200.967 257.106 201.237 256.842C201.511 256.574 201.761 256.309 201.989 256.047C202.217 255.785 202.4 255.537 202.54 255.304C202.68 255.068 202.749 254.861 202.749 254.685C202.749 254.474 202.698 254.282 202.596 254.108C202.493 253.931 202.355 253.79 202.181 253.685C202.01 253.58 201.82 253.527 201.609 253.527C201.398 253.527 201.204 253.58 201.028 253.685C200.854 253.79 200.715 253.931 200.609 254.108C200.507 254.282 200.456 254.474 200.456 254.685H199.738C199.738 254.334 199.823 254.018 199.994 253.736C200.165 253.452 200.391 253.227 200.673 253.061C200.955 252.893 201.267 252.809 201.609 252.809C201.951 252.809 202.261 252.893 202.54 253.061C202.822 253.229 203.047 253.456 203.215 253.741C203.383 254.022 203.467 254.337 203.467 254.685C203.467 254.884 203.418 255.099 203.322 255.33C203.225 255.557 203.092 255.792 202.924 256.034C202.756 256.276 202.566 256.521 202.352 256.769C202.138 257.014 201.914 257.256 201.677 257.495C201.441 257.734 201.206 257.964 200.972 258.183H203.544V258.9H199.682Z" fill="#ADABB5"/>
<path d="M222.832 258.9V258.264C223.051 258.067 223.298 257.848 223.571 257.606C223.844 257.361 224.116 257.106 224.387 256.842C224.66 256.574 224.911 256.309 225.138 256.047C225.366 255.785 225.55 255.537 225.689 255.304C225.829 255.068 225.899 254.861 225.899 254.685C225.899 254.474 225.848 254.282 225.745 254.108C225.643 253.931 225.504 253.79 225.331 253.685C225.16 253.58 224.969 253.527 224.758 253.527C224.548 253.527 224.354 253.58 224.177 253.685C224.004 253.79 223.864 253.931 223.759 254.108C223.656 254.282 223.605 254.474 223.605 254.685H222.887C222.887 254.334 222.973 254.018 223.144 253.736C223.315 253.452 223.541 253.227 223.823 253.061C224.105 252.893 224.417 252.809 224.758 252.809C225.1 252.809 225.41 252.893 225.689 253.061C225.971 253.229 226.196 253.456 226.364 253.741C226.532 254.022 226.616 254.337 226.616 254.685C226.616 254.884 226.568 255.099 226.471 255.33C226.374 255.557 226.242 255.792 226.074 256.034C225.906 256.276 225.715 256.521 225.502 256.769C225.288 257.014 225.063 257.256 224.827 257.495C224.59 257.734 224.355 257.964 224.122 258.183H226.693V258.9H222.832ZM229.545 259.011C229.189 259.011 228.871 258.932 228.589 258.772C228.307 258.61 228.065 258.386 227.862 258.102C227.66 257.817 227.507 257.488 227.401 257.115C227.296 256.739 227.243 256.338 227.243 255.91C227.243 255.483 227.296 255.082 227.401 254.706C227.507 254.33 227.66 254.001 227.862 253.719C228.065 253.434 228.307 253.212 228.589 253.053C228.871 252.891 229.189 252.809 229.545 252.809C229.899 252.809 230.216 252.891 230.498 253.053C230.783 253.212 231.023 253.434 231.22 253.719C231.419 254.001 231.571 254.33 231.677 254.706C231.785 255.082 231.839 255.483 231.839 255.91C231.839 256.338 231.785 256.739 231.677 257.115C231.571 257.488 231.419 257.817 231.22 258.102C231.023 258.386 230.783 258.61 230.498 258.772C230.216 258.932 229.899 259.011 229.545 259.011ZM229.545 258.294C229.901 258.294 230.199 258.184 230.438 257.965C230.68 257.743 230.861 257.451 230.981 257.089C231.1 256.728 231.16 256.335 231.16 255.91C231.16 255.463 231.097 255.06 230.972 254.702C230.85 254.34 230.667 254.054 230.425 253.843C230.186 253.632 229.893 253.527 229.545 253.527C229.272 253.527 229.033 253.591 228.828 253.719C228.626 253.847 228.458 254.022 228.324 254.245C228.19 254.467 228.089 254.722 228.021 255.009C227.955 255.294 227.922 255.594 227.922 255.91C227.922 256.335 227.984 256.729 228.106 257.094C228.228 257.455 228.409 257.746 228.648 257.965C228.89 258.184 229.189 258.294 229.545 258.294ZM232.823 259.011C232.715 259.011 232.622 258.973 232.545 258.896C232.471 258.819 232.434 258.725 232.434 258.614C232.434 258.509 232.471 258.418 232.545 258.341C232.622 258.264 232.715 258.226 232.823 258.226C232.934 258.226 233.028 258.264 233.105 258.341C233.182 258.418 233.22 258.509 233.22 258.614C233.22 258.725 233.182 258.819 233.105 258.896C233.028 258.973 232.934 259.011 232.823 259.011ZM234.748 258.9V253.638H234.078L234.278 252.92H235.466V258.9H234.748ZM236.489 258.9V258.264C236.708 258.067 236.954 257.848 237.228 257.606C237.501 257.361 237.773 257.106 238.043 256.842C238.317 256.574 238.567 256.309 238.795 256.047C239.023 255.785 239.207 255.537 239.346 255.304C239.486 255.068 239.556 254.861 239.556 254.685C239.556 254.474 239.504 254.282 239.402 254.108C239.299 253.931 239.161 253.79 238.987 253.685C238.817 253.58 238.626 253.527 238.415 253.527C238.204 253.527 238.011 253.58 237.834 253.685C237.66 253.79 237.521 253.931 237.416 254.108C237.313 254.282 237.262 254.474 237.262 254.685H236.544C236.544 254.334 236.63 254.018 236.8 253.736C236.971 253.452 237.198 253.227 237.48 253.061C237.762 252.893 238.073 252.809 238.415 252.809C238.757 252.809 239.067 252.893 239.346 253.061C239.628 253.229 239.853 253.456 240.021 253.741C240.189 254.022 240.273 254.337 240.273 254.685C240.273 254.884 240.225 255.099 240.128 255.33C240.031 255.557 239.899 255.792 239.731 256.034C239.563 256.276 239.372 256.521 239.158 256.769C238.945 257.014 238.72 257.256 238.483 257.495C238.247 257.734 238.012 257.964 237.779 258.183H240.35V258.9H236.489Z" fill="#ADABB5"/>
<path d="M259.695 258.9V258.264C259.914 258.067 260.161 257.848 260.434 257.606C260.708 257.361 260.979 257.106 261.25 256.842C261.523 256.574 261.774 256.309 262.002 256.047C262.23 255.785 262.413 255.537 262.553 255.304C262.692 255.068 262.762 254.861 262.762 254.685C262.762 254.474 262.711 254.282 262.608 254.108C262.506 253.931 262.368 253.79 262.194 253.685C262.023 253.58 261.832 253.527 261.622 253.527C261.411 253.527 261.217 253.58 261.041 253.685C260.867 253.79 260.727 253.931 260.622 254.108C260.52 254.282 260.468 254.474 260.468 254.685H259.751C259.751 254.334 259.836 254.018 260.007 253.736C260.178 253.452 260.404 253.227 260.686 253.061C260.968 252.893 261.28 252.809 261.622 252.809C261.963 252.809 262.274 252.893 262.553 253.061C262.835 253.229 263.06 253.456 263.228 253.741C263.396 254.022 263.48 254.337 263.48 254.685C263.48 254.884 263.431 255.099 263.334 255.33C263.238 255.557 263.105 255.792 262.937 256.034C262.769 256.276 262.578 256.521 262.365 256.769C262.151 257.014 261.926 257.256 261.69 257.495C261.454 257.734 261.219 257.964 260.985 258.183H263.557V258.9H259.695ZM266.722 258.9V257.286H264.15V256.56L266.542 252.92H267.439V256.568H268.033V257.286H267.439V258.9H266.722ZM264.992 256.56L266.722 256.568L266.709 253.929L264.992 256.56ZM269.277 259.011C269.169 259.011 269.077 258.973 269 258.896C268.926 258.819 268.889 258.725 268.889 258.614C268.889 258.509 268.926 258.418 269 258.341C269.077 258.264 269.169 258.226 269.277 258.226C269.388 258.226 269.482 258.264 269.559 258.341C269.636 258.418 269.675 258.509 269.675 258.614C269.675 258.725 269.636 258.819 269.559 258.896C269.482 258.973 269.388 259.011 269.277 259.011ZM271.203 258.9V253.638H270.532L270.733 252.92H271.92V258.9H271.203ZM272.943 258.9V258.264C273.162 258.067 273.409 257.848 273.682 257.606C273.955 257.361 274.227 257.106 274.498 256.842C274.771 256.574 275.022 256.309 275.25 256.047C275.478 255.785 275.661 255.537 275.801 255.304C275.94 255.068 276.01 254.861 276.01 254.685C276.01 254.474 275.959 254.282 275.856 254.108C275.754 253.931 275.616 253.79 275.442 253.685C275.271 253.58 275.08 253.527 274.87 253.527C274.659 253.527 274.465 253.58 274.289 253.685C274.115 253.79 273.975 253.931 273.87 254.108C273.768 254.282 273.716 254.474 273.716 254.685H272.999C272.999 254.334 273.084 254.018 273.255 253.736C273.426 253.452 273.652 253.227 273.934 253.061C274.216 252.893 274.528 252.809 274.87 252.809C275.211 252.809 275.522 252.893 275.801 253.061C276.083 253.229 276.308 253.456 276.476 253.741C276.644 254.022 276.728 254.337 276.728 254.685C276.728 254.884 276.679 255.099 276.582 255.33C276.486 255.557 276.353 255.792 276.185 256.034C276.017 256.276 275.826 256.521 275.613 256.769C275.399 257.014 275.174 257.256 274.938 257.495C274.702 257.734 274.467 257.964 274.233 258.183H276.805V258.9H272.943Z" fill="#ADABB5"/>
<path d="M17.4785 -21.0312V237.581" stroke="#201F24" stroke-width="0.776614" stroke-dasharray="3.11 3.11"/>
<path d="M53.9785 -21.0312V237.581" stroke="#201F24" stroke-width="0.776614" stroke-dasharray="3.11 3.11"/>
<path d="M90.4805 -21.0312V237.581" stroke="#201F24" stroke-width="0.776614" stroke-dasharray="3.11 3.11"/>
<path d="M126.98 -21.0312V237.581" stroke="#201F24" stroke-width="0.776614" stroke-dasharray="3.11 3.11"/>
<path d="M163.482 -21.0312V237.581" stroke="#201F24" stroke-width="0.776614" stroke-dasharray="3.11 3.11"/>
<path d="M199.982 -21.0312V237.581" stroke="#201F24" stroke-width="0.776614" stroke-dasharray="3.11 3.11"/>
<path d="M236.484 -21.0312V237.581" stroke="#201F24" stroke-width="0.776614" stroke-dasharray="3.11 3.11"/>
<path d="M272.984 -21.0312V237.581" stroke="#201F24" stroke-width="0.776614" stroke-dasharray="3.11 3.11"/>
<path d="M32.1074 83.1154C27.2817 75.5829 22.6375 72.9315 19.798 72.3144C18.6957 72.0749 17.8633 73.0349 17.8633 74.1629V238.358C17.8633 239.644 18.9064 240.687 20.1931 240.687H269.486C270.773 240.687 271.816 239.644 271.816 238.358V200.177C271.816 199.301 271.327 198.499 270.544 198.107C263.969 194.814 251.557 189.014 245.77 187.849C238.037 186.291 234.781 180.451 228.677 173.443C222.572 166.435 221.152 166.927 217.842 162.638C217.196 161.861 209.299 146.329 198.038 143.611C194.352 142.721 178.622 151.506 170.856 156.813C165.119 160.256 165.808 158.366 161.149 160.308C154.672 163.007 142.622 150.559 140.18 146.717C138.947 144.777 137.921 143.464 134.258 135.677C130.596 127.89 125.943 123.807 123.095 123.807C113.913 123.807 107.398 128.669 100.886 136.066C94.3747 143.464 90.4041 145.17 85.8283 143.464C83.0989 142.446 75.1498 137.434 70.6731 123.807C66.1963 110.18 65.8175 111.135 63.0376 107.255C59.3748 102.142 55.3051 99.4678 49.2004 98.6891C43.0958 97.9105 39.84 95.1851 32.1074 83.1154Z" fill="url(#paint0_linear_4773_90489)"/>
<path d="M19.4141 72.2138C21.5846 71.8245 27.4722 73.4597 33.6582 83.1154C41.3908 95.1851 44.6466 97.9104 50.7512 98.6891C56.8558 99.4678 60.9256 102.142 64.5884 107.255C67.3682 111.135 67.7471 110.18 72.2238 123.807C76.7006 137.434 84.6497 142.446 87.379 143.464C91.9549 145.17 95.9255 143.464 102.437 136.066C108.949 128.669 115.464 123.807 124.645 123.807C127.494 123.807 132.146 127.89 135.809 135.677C139.472 143.464 140.498 144.777 141.731 146.717C144.173 150.559 156.223 163.006 162.699 160.308C167.359 158.366 166.67 160.256 172.407 156.813C180.173 151.506 195.903 142.721 199.589 143.611C210.85 146.329 218.747 161.861 219.392 162.638C222.703 166.927 224.123 166.435 230.228 173.443C236.332 180.451 239.588 186.291 247.321 187.849C253.507 189.095 267.262 195.636 273.367 198.75" stroke="#A888FC" stroke-width="1.55323"/>
<circle cx="20.1938" cy="71.3872" r="3.32852" fill="white" stroke="#9369F7" stroke-width="1.10945"/>
<circle cx="54.3637" cy="99.3442" r="3.49494" fill="white" stroke="#9369F7" stroke-width="0.776614"/>
<circle cx="90.8637" cy="143.612" r="3.49494" fill="white" stroke="#9369F7" stroke-width="0.776614"/>
<circle cx="127.364" cy="124.196" r="3.49494" fill="white" stroke="#9369F7" stroke-width="0.776614"/>
<circle cx="163.866" cy="160.7" r="3.49494" fill="white" stroke="#9369F7" stroke-width="0.776614"/>
<circle cx="200.366" cy="143.612" r="3.49494" fill="white" stroke="#9369F7" stroke-width="0.776614"/>
<circle cx="236.868" cy="180.895" r="3.49494" fill="white" stroke="#9369F7" stroke-width="0.776614"/>
<circle cx="272.594" cy="198.756" r="3.49494" fill="white" stroke="#9369F7" stroke-width="0.776614"/>
<path d="M16.2466 61.7517C15.8907 61.7517 15.566 61.6705 15.2727 61.5082C14.9823 61.3459 14.7502 61.1295 14.5765 60.859C14.4057 60.5856 14.3202 60.2838 14.3202 59.9534C14.3202 59.6459 14.4014 59.364 14.5637 59.1077C14.726 58.8486 14.9382 58.6435 15.2001 58.4926C14.9866 58.3559 14.81 58.1751 14.6705 57.9502C14.5338 57.7223 14.4655 57.476 14.4655 57.2112C14.4655 56.9037 14.5452 56.6246 14.7047 56.374C14.867 56.1234 15.082 55.9241 15.3496 55.776C15.6201 55.6251 15.9191 55.5496 16.2466 55.5496C16.5741 55.5496 16.8717 55.6251 17.1393 55.776C17.4099 55.9241 17.6248 56.1234 17.7843 56.374C17.9466 56.6246 18.0278 56.9037 18.0278 57.2112C18.0278 57.476 17.9594 57.7223 17.8228 57.9502C17.6861 58.1751 17.5081 58.3559 17.2888 58.4926C17.5594 58.6435 17.7743 58.8486 17.9338 59.1077C18.0961 59.364 18.1773 59.6459 18.1773 59.9534C18.1773 60.2809 18.0904 60.5813 17.9167 60.8547C17.743 61.1281 17.5095 61.3459 17.2162 61.5082C16.9258 61.6705 16.6026 61.7517 16.2466 61.7517ZM16.2466 61.0341C16.463 61.0341 16.6581 60.9857 16.8318 60.8889C17.0083 60.792 17.1493 60.6625 17.2547 60.5002C17.36 60.335 17.4127 60.1528 17.4127 59.9534C17.4127 59.7513 17.36 59.569 17.2547 59.4067C17.1493 59.2444 17.0083 59.1148 16.8318 59.018C16.6581 58.9212 16.463 58.8728 16.2466 58.8728C16.033 58.8728 15.838 58.9212 15.6614 59.018C15.4849 59.1148 15.3439 59.2444 15.2386 59.4067C15.1332 59.569 15.0805 59.7513 15.0805 59.9534C15.0805 60.1528 15.1332 60.335 15.2386 60.5002C15.3439 60.6625 15.4849 60.792 15.6614 60.8889C15.838 60.9857 16.033 61.0341 16.2466 61.0341ZM16.2466 58.1552C16.4346 58.1552 16.6054 58.1125 16.7592 58.027C16.913 57.9416 17.0354 57.8277 17.1265 57.6853C17.2205 57.5429 17.2675 57.3849 17.2675 57.2112C17.2675 57.0347 17.2205 56.8766 17.1265 56.7371C17.0354 56.5947 16.913 56.4808 16.7592 56.3954C16.6054 56.3099 16.4346 56.2672 16.2466 56.2672C16.0587 56.2672 15.8878 56.3099 15.7341 56.3954C15.5803 56.4808 15.4564 56.5947 15.3624 56.7371C15.2713 56.8766 15.2258 57.0347 15.2258 57.2112C15.2258 57.3849 15.2713 57.5429 15.3624 57.6853C15.4564 57.8277 15.5803 57.9416 15.7341 58.027C15.8878 58.1125 16.0587 58.1552 16.2466 58.1552ZM18.8586 61.6406V61.0042C19.0778 60.8077 19.3241 60.5884 19.5975 60.3464C19.8709 60.1015 20.1428 59.8466 20.4133 59.5818C20.6867 59.3141 20.9373 59.0493 21.1651 58.7873C21.3929 58.5254 21.5766 58.2776 21.7161 58.0441C21.8557 57.8078 21.9254 57.6013 21.9254 57.4248C21.9254 57.2141 21.8742 57.0218 21.7716 56.8481C21.6691 56.6716 21.531 56.5306 21.3573 56.4253C21.1865 56.3199 20.9957 56.2672 20.785 56.2672C20.5742 56.2672 20.3806 56.3199 20.2041 56.4253C20.0303 56.5306 19.8908 56.6716 19.7855 56.8481C19.6829 57.0218 19.6317 57.2141 19.6317 57.4248H18.9141C18.9141 57.0745 18.9995 56.7584 19.1704 56.4765C19.3412 56.1918 19.5676 55.9668 19.8495 55.8016C20.1314 55.6336 20.4432 55.5496 20.785 55.5496C21.1267 55.5496 21.4371 55.6336 21.7161 55.8016C21.998 55.9697 22.223 56.196 22.391 56.4808C22.559 56.7627 22.643 57.0774 22.643 57.4248C22.643 57.6241 22.5946 57.8391 22.4978 58.0698C22.401 58.2976 22.2686 58.5325 22.1005 58.7745C21.9325 59.0166 21.7417 59.2615 21.5282 59.5092C21.3146 59.7541 21.0896 59.9961 20.8533 60.2353C20.617 60.4745 20.382 60.7038 20.1485 60.923H22.7199V61.6406H18.8586ZM23.9608 61.7517C23.8526 61.7517 23.76 61.7132 23.6832 61.6364C23.6091 61.5595 23.5721 61.4655 23.5721 61.3544C23.5721 61.2491 23.6091 61.158 23.6832 61.0811C23.76 61.0042 23.8526 60.9657 23.9608 60.9657C24.0719 60.9657 24.1658 61.0042 24.2427 61.0811C24.3196 61.158 24.358 61.2491 24.358 61.3544C24.358 61.4655 24.3196 61.5595 24.2427 61.6364C24.1658 61.7132 24.0719 61.7517 23.9608 61.7517ZM27.4324 61.7517C27.0765 61.7517 26.7575 61.6719 26.4756 61.5125C26.1937 61.3502 25.9517 61.1266 25.7495 60.8419C25.5473 60.5571 25.3936 60.2282 25.2882 59.8552C25.1828 59.4793 25.1302 59.0778 25.1302 58.6507C25.1302 58.2235 25.1828 57.822 25.2882 57.4461C25.3936 57.0702 25.5473 56.7414 25.7495 56.4594C25.9517 56.1747 26.1937 55.9526 26.4756 55.7931C26.7575 55.6308 27.0765 55.5496 27.4324 55.5496C27.7855 55.5496 28.103 55.6308 28.3849 55.7931C28.6697 55.9526 28.9103 56.1747 29.1068 56.4594C29.3061 56.7414 29.4585 57.0702 29.5638 57.4461C29.6721 57.822 29.7262 58.2235 29.7262 58.6507C29.7262 59.0778 29.6721 59.4793 29.5638 59.8552C29.4585 60.2282 29.3061 60.5571 29.1068 60.8419C28.9103 61.1266 28.6697 61.3502 28.3849 61.5125C28.103 61.6719 27.7855 61.7517 27.4324 61.7517ZM27.4324 61.0341C27.7884 61.0341 28.0859 60.9245 28.3251 60.7052C28.5672 60.4831 28.748 60.1912 28.8676 59.8296C28.9872 59.4679 29.047 59.0749 29.047 58.6507C29.047 58.2036 28.9844 57.8007 28.8591 57.4419C28.7366 57.0802 28.5544 56.794 28.3123 56.5833C28.0731 56.3726 27.7798 56.2672 27.4324 56.2672C27.1591 56.2672 26.9199 56.3313 26.7148 56.4594C26.5127 56.5876 26.3446 56.7627 26.2108 56.9848C26.077 57.2069 25.9759 57.4618 25.9075 57.7494C25.842 58.0342 25.8093 58.3346 25.8093 58.6507C25.8093 59.0749 25.8705 59.4693 25.993 59.8338C26.1154 60.1955 26.2962 60.4859 26.5354 60.7052C26.7775 60.9245 27.0765 61.0341 27.4324 61.0341Z" fill="#B9ACD3"/>
<path d="M48.8638 89.7087C48.5079 89.7087 48.1832 89.6276 47.8899 89.4652C47.5995 89.3029 47.3674 89.0865 47.1937 88.816C47.0228 88.5426 46.9374 88.2408 46.9374 87.9105C46.9374 87.6029 47.0186 87.321 47.1809 87.0647C47.3432 86.8056 47.5553 86.6006 47.8173 86.4496C47.6037 86.313 47.4272 86.1321 47.2877 85.9072C47.151 85.6794 47.0826 85.4331 47.0826 85.1682C47.0826 84.8607 47.1624 84.5816 47.3218 84.331C47.4841 84.0805 47.6991 83.8811 47.9668 83.7331C48.2373 83.5821 48.5363 83.5067 48.8638 83.5067C49.1913 83.5067 49.4889 83.5821 49.7565 83.7331C50.027 83.8811 50.242 84.0805 50.4015 84.331C50.5638 84.5816 50.645 84.8607 50.645 85.1682C50.645 85.4331 50.5766 85.6794 50.4399 85.9072C50.3033 86.1321 50.1253 86.313 49.906 86.4496C50.1765 86.6006 50.3915 86.8056 50.551 87.0647C50.7133 87.321 50.7945 87.6029 50.7945 87.9105C50.7945 88.2379 50.7076 88.5384 50.5339 88.8117C50.3602 89.0851 50.1267 89.3029 49.8334 89.4652C49.543 89.6276 49.2198 89.7087 48.8638 89.7087ZM48.8638 88.9911C49.0802 88.9911 49.2753 88.9427 49.449 88.8459C49.6255 88.7491 49.7665 88.6195 49.8719 88.4572C49.9772 88.292 50.0299 88.1098 50.0299 87.9105C50.0299 87.7083 49.9772 87.526 49.8719 87.3637C49.7665 87.2014 49.6255 87.0718 49.449 86.975C49.2753 86.8782 49.0802 86.8298 48.8638 86.8298C48.6502 86.8298 48.4552 86.8782 48.2786 86.975C48.1021 87.0718 47.9611 87.2014 47.8558 87.3637C47.7504 87.526 47.6977 87.7083 47.6977 87.9105C47.6977 88.1098 47.7504 88.292 47.8558 88.4572C47.9611 88.6195 48.1021 88.7491 48.2786 88.8459C48.4552 88.9427 48.6502 88.9911 48.8638 88.9911ZM48.8638 86.1122C49.0517 86.1122 49.2226 86.0695 49.3764 85.9841C49.5301 85.8986 49.6526 85.7847 49.7437 85.6424C49.8377 85.5 49.8847 85.3419 49.8847 85.1682C49.8847 84.9917 49.8377 84.8336 49.7437 84.6941C49.6526 84.5517 49.5301 84.4378 49.3764 84.3524C49.2226 84.267 49.0517 84.2243 48.8638 84.2243C48.6759 84.2243 48.505 84.267 48.3512 84.3524C48.1975 84.4378 48.0736 84.5517 47.9796 84.6941C47.8885 84.8336 47.8429 84.9917 47.8429 85.1682C47.8429 85.3419 47.8885 85.5 47.9796 85.6424C48.0736 85.7847 48.1975 85.8986 48.3512 85.9841C48.505 86.0695 48.6759 86.1122 48.8638 86.1122ZM53.6926 89.7087C53.3367 89.7087 53.0177 89.629 52.7358 89.4695C52.4539 89.3072 52.2119 89.0837 52.0097 88.7989C51.8075 88.5141 51.6537 88.1853 51.5484 87.8122C51.443 87.4363 51.3903 87.0348 51.3903 86.6077C51.3903 86.1806 51.443 85.779 51.5484 85.4032C51.6537 85.0273 51.8075 84.6984 52.0097 84.4165C52.2119 84.1317 52.4539 83.9096 52.7358 83.7501C53.0177 83.5878 53.3367 83.5067 53.6926 83.5067C54.0457 83.5067 54.3632 83.5878 54.6451 83.7501C54.9299 83.9096 55.1705 84.1317 55.367 84.4165C55.5663 84.6984 55.7187 85.0273 55.824 85.4032C55.9322 85.779 55.9863 86.1806 55.9863 86.6077C55.9863 87.0348 55.9322 87.4363 55.824 87.8122C55.7187 88.1853 55.5663 88.5141 55.367 88.7989C55.1705 89.0837 54.9299 89.3072 54.6451 89.4695C54.3632 89.629 54.0457 89.7087 53.6926 89.7087ZM53.6926 88.9911C54.0485 88.9911 54.3461 88.8815 54.5853 88.6622C54.8274 88.4401 55.0082 88.1482 55.1278 87.7866C55.2474 87.4249 55.3072 87.032 55.3072 86.6077C55.3072 86.1606 55.2445 85.7577 55.1192 85.3989C54.9968 85.0372 54.8145 84.7511 54.5725 84.5403C54.3333 84.3296 54.04 84.2243 53.6926 84.2243C53.4192 84.2243 53.18 84.2883 52.975 84.4165C52.7728 84.5446 52.6048 84.7197 52.471 84.9419C52.3371 85.164 52.2361 85.4188 52.1677 85.7064C52.1022 85.9912 52.0695 86.2916 52.0695 86.6077C52.0695 87.032 52.1307 87.4264 52.2531 87.7909C52.3756 88.1525 52.5564 88.443 52.7956 88.6622C53.0377 88.8815 53.3367 88.9911 53.6926 88.9911ZM56.9701 89.7087C56.8619 89.7087 56.7693 89.6703 56.6924 89.5934C56.6184 89.5165 56.5814 89.4225 56.5814 89.3115C56.5814 89.2061 56.6184 89.115 56.6924 89.0381C56.7693 88.9612 56.8619 88.9228 56.9701 88.9228C57.0811 88.9228 57.1751 88.9612 57.252 89.0381C57.3289 89.115 57.3673 89.2061 57.3673 89.3115C57.3673 89.4225 57.3289 89.5165 57.252 89.5934C57.1751 89.6703 57.0811 89.7087 56.9701 89.7087ZM59.3141 89.5977L60.5912 87.3936C60.2922 87.4819 59.9975 87.4976 59.707 87.4406C59.4194 87.3808 59.1575 87.2641 58.9211 87.0904C58.6848 86.9138 58.4954 86.6917 58.353 86.424C58.2106 86.1563 58.1394 85.8588 58.1394 85.5313C58.1394 85.2522 58.1921 84.9903 58.2975 84.7454C58.4028 84.5005 58.5481 84.2855 58.7332 84.1004C58.9183 83.9153 59.1318 83.7701 59.3739 83.6647C59.6188 83.5593 59.8807 83.5067 60.1598 83.5067C60.53 83.5067 60.866 83.5978 61.1678 83.78C61.4725 83.9623 61.716 84.2072 61.8983 84.5147C62.0833 84.8194 62.1759 85.1583 62.1759 85.5313C62.1759 85.7335 62.1503 85.9129 62.099 86.0695C62.0506 86.2233 61.9766 86.3913 61.8769 86.5735L60.1427 89.5977H59.3141ZM60.1513 86.8341C60.4047 86.8341 60.6297 86.7743 60.8261 86.6547C61.0255 86.5322 61.1807 86.3713 61.2917 86.172C61.4056 85.9727 61.4626 85.7591 61.4626 85.5313C61.4626 85.2836 61.4028 85.0615 61.2832 84.865C61.1636 84.6656 61.0041 84.509 60.8048 84.3951C60.6054 84.2784 60.3905 84.22 60.1598 84.22C59.9064 84.22 59.68 84.2812 59.4807 84.4037C59.2842 84.5261 59.129 84.6884 59.0151 84.8906C58.904 85.0899 58.8485 85.3035 58.8485 85.5313C58.8485 85.7705 58.9054 85.9898 59.0193 86.1891C59.1361 86.3856 59.2927 86.5422 59.4892 86.6589C59.6885 86.7757 59.9092 86.8341 60.1513 86.8341Z" fill="#B9ACD3"/>
<path d="M84.445 133.869L87.4777 128.607H84.0478V127.889H88.3064V128.607L85.2652 133.869H84.445ZM89.9046 133.869L91.1817 131.665C90.8827 131.753 90.588 131.769 90.2976 131.712C90.01 131.652 89.748 131.536 89.5116 131.362C89.2753 131.185 89.0859 130.963 88.9435 130.696C88.8012 130.428 88.73 130.13 88.73 129.803C88.73 129.524 88.7827 129.262 88.888 129.017C88.9934 128.772 89.1386 128.557 89.3237 128.372C89.5088 128.187 89.7224 128.042 89.9644 127.936C90.2093 127.831 90.4713 127.778 90.7503 127.778C91.1205 127.778 91.4565 127.869 91.7584 128.052C92.0631 128.234 92.3065 128.479 92.4888 128.786C92.6739 129.091 92.7664 129.43 92.7664 129.803C92.7664 130.005 92.7408 130.184 92.6895 130.341C92.6411 130.495 92.5671 130.663 92.4674 130.845L90.7333 133.869H89.9046ZM90.7418 131.106C90.9952 131.106 91.2202 131.046 91.4167 130.926C91.616 130.804 91.7712 130.643 91.8823 130.443C91.9962 130.244 92.0531 130.031 92.0531 129.803C92.0531 129.555 91.9933 129.333 91.8737 129.136C91.7541 128.937 91.5946 128.781 91.3953 128.667C91.196 128.55 90.981 128.491 90.7503 128.491C90.4969 128.491 90.2705 128.553 90.0712 128.675C89.8747 128.798 89.7195 128.96 89.6056 129.162C89.4946 129.361 89.439 129.575 89.439 129.803C89.439 130.042 89.496 130.261 89.6099 130.461C89.7266 130.657 89.8832 130.814 90.0797 130.93C90.2791 131.047 90.4997 131.106 90.7418 131.106ZM93.7508 133.98C93.6426 133.98 93.55 133.942 93.4731 133.865C93.3991 133.788 93.3621 133.694 93.3621 133.583C93.3621 133.478 93.3991 133.386 93.4731 133.31C93.55 133.233 93.6426 133.194 93.7508 133.194C93.8618 133.194 93.9558 133.233 94.0327 133.31C94.1096 133.386 94.148 133.478 94.148 133.583C94.148 133.694 94.1096 133.788 94.0327 133.865C93.9558 133.942 93.8618 133.98 93.7508 133.98ZM96.7825 133.98C96.4208 133.98 96.099 133.899 95.8171 133.737C95.5381 133.572 95.3188 133.352 95.1593 133.079C94.9999 132.803 94.9201 132.497 94.9201 132.161H95.6377C95.6377 132.363 95.6847 132.548 95.7787 132.716C95.8727 132.881 96.0051 133.013 96.1759 133.113C96.3468 133.213 96.549 133.263 96.7825 133.263C96.9846 133.263 97.1726 133.213 97.3463 133.113C97.5228 133.013 97.6652 132.881 97.7734 132.716C97.8816 132.548 97.9357 132.363 97.9357 132.161C97.9357 131.907 97.8702 131.696 97.7392 131.528C97.6111 131.358 97.4317 131.231 97.2011 131.148C96.9732 131.063 96.7127 131.02 96.4194 131.02V130.443C96.8237 130.443 97.1469 130.359 97.389 130.191C97.6339 130.023 97.7563 129.776 97.7563 129.448C97.7563 129.275 97.7093 129.115 97.6154 128.97C97.5214 128.825 97.3975 128.709 97.2438 128.624C97.0928 128.536 96.9305 128.491 96.7568 128.491C96.5803 128.491 96.4108 128.536 96.2485 128.624C96.0862 128.709 95.9538 128.825 95.8513 128.97C95.7488 129.115 95.6975 129.275 95.6975 129.448H94.9799C94.9799 129.218 95.0269 129.001 95.1209 128.799C95.2177 128.597 95.3487 128.419 95.5139 128.265C95.6819 128.111 95.8712 127.992 96.082 127.906C96.2927 127.818 96.5148 127.774 96.7483 127.774C97.053 127.774 97.3363 127.849 97.5983 128C97.8603 128.151 98.071 128.353 98.2305 128.607C98.3928 128.86 98.4739 129.141 98.4739 129.448C98.4739 129.724 98.4042 129.979 98.2646 130.213C98.1251 130.446 97.9357 130.61 97.6965 130.704C97.9044 130.775 98.0795 130.886 98.2219 131.037C98.3643 131.185 98.4711 131.356 98.5423 131.55C98.6163 131.743 98.6533 131.947 98.6533 132.161C98.6533 132.494 98.5665 132.798 98.3928 133.075C98.2219 133.351 97.9941 133.572 97.7093 133.737C97.4274 133.899 97.1185 133.98 96.7825 133.98Z" fill="#B9ACD3"/>
<path d="M122.502 115.225L125.534 109.962H122.104V109.245H126.363V109.962L123.322 115.225H122.502ZM127.961 115.225L129.238 113.021C128.939 113.109 128.645 113.125 128.354 113.068C128.067 113.008 127.805 112.891 127.568 112.717C127.332 112.541 127.143 112.319 127 112.051C126.858 111.783 126.787 111.486 126.787 111.158C126.787 110.879 126.839 110.617 126.945 110.372C127.05 110.127 127.195 109.912 127.38 109.727C127.565 109.542 127.779 109.397 128.021 109.292C128.266 109.186 128.528 109.134 128.807 109.134C129.177 109.134 129.513 109.225 129.815 109.407C130.12 109.589 130.363 109.834 130.545 110.142C130.731 110.446 130.823 110.785 130.823 111.158C130.823 111.36 130.797 111.54 130.746 111.696C130.698 111.85 130.624 112.018 130.524 112.2L128.79 115.225H127.961ZM128.798 112.461C129.052 112.461 129.277 112.401 129.473 112.282C129.673 112.159 129.828 111.998 129.939 111.799C130.053 111.6 130.11 111.386 130.11 111.158C130.11 110.911 130.05 110.688 129.93 110.492C129.811 110.293 129.651 110.136 129.452 110.022C129.253 109.905 129.038 109.847 128.807 109.847C128.554 109.847 128.327 109.908 128.128 110.031C127.931 110.153 127.776 110.315 127.662 110.518C127.551 110.717 127.496 110.93 127.496 111.158C127.496 111.397 127.553 111.617 127.667 111.816C127.783 112.013 127.94 112.169 128.136 112.286C128.336 112.403 128.556 112.461 128.798 112.461ZM131.807 115.336C131.699 115.336 131.607 115.297 131.53 115.22C131.456 115.143 131.419 115.049 131.419 114.938C131.419 114.833 131.456 114.742 131.53 114.665C131.607 114.588 131.699 114.55 131.807 114.55C131.918 114.55 132.012 114.588 132.089 114.665C132.166 114.742 132.205 114.833 132.205 114.938C132.205 115.049 132.166 115.143 132.089 115.22C132.012 115.297 131.918 115.336 131.807 115.336ZM135.006 115.336C134.635 115.336 134.299 115.246 133.998 115.067C133.696 114.887 133.457 114.648 133.28 114.349C133.106 114.047 133.019 113.715 133.019 113.354H133.737C133.737 113.584 133.794 113.797 133.908 113.99C134.022 114.181 134.174 114.333 134.365 114.447C134.559 114.561 134.772 114.618 135.006 114.618C135.236 114.618 135.447 114.561 135.638 114.447C135.829 114.333 135.981 114.181 136.095 113.99C136.209 113.797 136.266 113.584 136.266 113.354C136.266 113.123 136.212 112.911 136.103 112.717C135.998 112.524 135.843 112.37 135.638 112.256C135.433 112.139 135.184 112.081 134.89 112.081H133.417L133.998 109.245H136.834V109.962H134.579L134.301 111.363L134.92 111.368C135.327 111.376 135.685 111.467 135.992 111.641C136.303 111.812 136.545 112.045 136.719 112.341C136.895 112.635 136.983 112.972 136.983 113.354C136.983 113.624 136.932 113.881 136.83 114.123C136.727 114.362 136.585 114.573 136.402 114.755C136.22 114.937 136.009 115.079 135.77 115.182C135.534 115.284 135.279 115.336 135.006 115.336Z" fill="#B9ACD3"/>
<path d="M157.445 150.951L160.478 145.689H157.048V144.971H161.306V145.689L158.265 150.951H157.445ZM163.742 151.062C163.386 151.062 163.061 150.981 162.768 150.819C162.477 150.656 162.245 150.44 162.072 150.17C161.901 149.896 161.815 149.594 161.815 149.264C161.815 148.956 161.897 148.675 162.059 148.418C162.221 148.159 162.433 147.954 162.695 147.803C162.482 147.666 162.305 147.486 162.166 147.261C162.029 147.033 161.961 146.787 161.961 146.522C161.961 146.214 162.04 145.935 162.2 145.685C162.362 145.434 162.577 145.235 162.845 145.087C163.115 144.936 163.414 144.86 163.742 144.86C164.069 144.86 164.367 144.936 164.635 145.087C164.905 145.235 165.12 145.434 165.279 145.685C165.442 145.935 165.523 146.214 165.523 146.522C165.523 146.787 165.455 147.033 165.318 147.261C165.181 147.486 165.003 147.666 164.784 147.803C165.055 147.954 165.27 148.159 165.429 148.418C165.591 148.675 165.672 148.956 165.672 149.264C165.672 149.591 165.586 149.892 165.412 150.165C165.238 150.439 165.005 150.656 164.711 150.819C164.421 150.981 164.098 151.062 163.742 151.062ZM163.742 150.345C163.958 150.345 164.153 150.296 164.327 150.199C164.504 150.103 164.644 149.973 164.75 149.811C164.855 149.646 164.908 149.463 164.908 149.264C164.908 149.062 164.855 148.88 164.75 148.717C164.644 148.555 164.504 148.425 164.327 148.329C164.153 148.232 163.958 148.183 163.742 148.183C163.528 148.183 163.333 148.232 163.157 148.329C162.98 148.425 162.839 148.555 162.734 148.717C162.628 148.88 162.576 149.062 162.576 149.264C162.576 149.463 162.628 149.646 162.734 149.811C162.839 149.973 162.98 150.103 163.157 150.199C163.333 150.296 163.528 150.345 163.742 150.345ZM163.742 147.466C163.93 147.466 164.101 147.423 164.254 147.338C164.408 147.252 164.531 147.138 164.622 146.996C164.716 146.853 164.763 146.695 164.763 146.522C164.763 146.345 164.716 146.187 164.622 146.048C164.531 145.905 164.408 145.791 164.254 145.706C164.101 145.62 163.93 145.578 163.742 145.578C163.554 145.578 163.383 145.62 163.229 145.706C163.075 145.791 162.952 145.905 162.858 146.048C162.766 146.187 162.721 146.345 162.721 146.522C162.721 146.695 162.766 146.853 162.858 146.996C162.952 147.138 163.075 147.252 163.229 147.338C163.383 147.423 163.554 147.466 163.742 147.466ZM166.742 151.062C166.634 151.062 166.542 151.024 166.465 150.947C166.391 150.87 166.354 150.776 166.354 150.665C166.354 150.56 166.391 150.469 166.465 150.392C166.542 150.315 166.634 150.276 166.742 150.276C166.853 150.276 166.947 150.315 167.024 150.392C167.101 150.469 167.14 150.56 167.14 150.665C167.14 150.776 167.101 150.87 167.024 150.947C166.947 151.024 166.853 151.062 166.742 151.062ZM169.086 150.951L170.364 148.747C170.065 148.835 169.77 148.851 169.479 148.794C169.192 148.734 168.93 148.618 168.693 148.444C168.457 148.267 168.268 148.045 168.125 147.778C167.983 147.51 167.912 147.212 167.912 146.885C167.912 146.606 167.964 146.344 168.07 146.099C168.175 145.854 168.32 145.639 168.506 145.454C168.691 145.269 168.904 145.124 169.146 145.018C169.391 144.913 169.653 144.86 169.932 144.86C170.302 144.86 170.638 144.951 170.94 145.134C171.245 145.316 171.488 145.561 171.671 145.868C171.856 146.173 171.948 146.512 171.948 146.885C171.948 147.087 171.923 147.266 171.871 147.423C171.823 147.577 171.749 147.745 171.649 147.927L169.915 150.951H169.086ZM169.924 148.188C170.177 148.188 170.402 148.128 170.598 148.008C170.798 147.886 170.953 147.725 171.064 147.526C171.178 147.326 171.235 147.113 171.235 146.885C171.235 146.637 171.175 146.415 171.056 146.218C170.936 146.019 170.776 145.863 170.577 145.749C170.378 145.632 170.163 145.574 169.932 145.574C169.679 145.574 169.452 145.635 169.253 145.757C169.057 145.88 168.901 146.042 168.787 146.244C168.676 146.443 168.621 146.657 168.621 146.885C168.621 147.124 168.678 147.343 168.792 147.543C168.908 147.739 169.065 147.896 169.262 148.012C169.461 148.129 169.682 148.188 169.924 148.188Z" fill="#B9ACD3"/>
<path d="M193.168 134.643L196.2 129.38H192.77V128.663H197.029V129.38L193.988 134.643H193.168ZM198.627 134.643L199.904 132.439C199.605 132.527 199.311 132.542 199.02 132.486C198.733 132.426 198.471 132.309 198.234 132.135C197.998 131.959 197.809 131.737 197.666 131.469C197.524 131.201 197.453 130.904 197.453 130.576C197.453 130.297 197.505 130.035 197.611 129.79C197.716 129.545 197.861 129.33 198.046 129.145C198.231 128.96 198.445 128.815 198.687 128.71C198.932 128.604 199.194 128.552 199.473 128.552C199.843 128.552 200.179 128.643 200.481 128.825C200.786 129.007 201.029 129.252 201.211 129.56C201.397 129.864 201.489 130.203 201.489 130.576C201.489 130.778 201.463 130.958 201.412 131.114C201.364 131.268 201.29 131.436 201.19 131.618L199.456 134.643H198.627ZM199.464 131.879C199.718 131.879 199.943 131.819 200.139 131.7C200.339 131.577 200.494 131.416 200.605 131.217C200.719 131.018 200.776 130.804 200.776 130.576C200.776 130.328 200.716 130.106 200.596 129.91C200.477 129.711 200.317 129.554 200.118 129.44C199.919 129.323 199.704 129.265 199.473 129.265C199.22 129.265 198.993 129.326 198.794 129.449C198.597 129.571 198.442 129.733 198.328 129.936C198.217 130.135 198.162 130.348 198.162 130.576C198.162 130.815 198.219 131.035 198.333 131.234C198.449 131.431 198.606 131.587 198.802 131.704C199.002 131.821 199.222 131.879 199.464 131.879ZM202.473 134.754C202.365 134.754 202.273 134.715 202.196 134.638C202.122 134.561 202.085 134.467 202.085 134.356C202.085 134.251 202.122 134.16 202.196 134.083C202.273 134.006 202.365 133.968 202.473 133.968C202.584 133.968 202.678 134.006 202.755 134.083C202.832 134.16 202.871 134.251 202.871 134.356C202.871 134.467 202.832 134.561 202.755 134.638C202.678 134.715 202.584 134.754 202.473 134.754ZM203.728 134.643V134.006C203.947 133.81 204.194 133.59 204.467 133.348C204.741 133.103 205.012 132.849 205.283 132.584C205.556 132.316 205.807 132.051 206.035 131.789C206.263 131.527 206.446 131.28 206.586 131.046C206.725 130.81 206.795 130.603 206.795 130.427C206.795 130.216 206.744 130.024 206.641 129.85C206.539 129.674 206.401 129.533 206.227 129.427C206.056 129.322 205.865 129.269 205.655 129.269C205.444 129.269 205.25 129.322 205.074 129.427C204.9 129.533 204.76 129.674 204.655 129.85C204.553 130.024 204.501 130.216 204.501 130.427H203.784C203.784 130.076 203.869 129.76 204.04 129.478C204.211 129.194 204.437 128.969 204.719 128.804C205.001 128.636 205.313 128.552 205.655 128.552C205.996 128.552 206.307 128.636 206.586 128.804C206.868 128.972 207.093 129.198 207.261 129.483C207.429 129.765 207.513 130.079 207.513 130.427C207.513 130.626 207.464 130.841 207.367 131.072C207.271 131.3 207.138 131.534 206.97 131.776C206.802 132.019 206.611 132.263 206.398 132.511C206.184 132.756 205.959 132.998 205.723 133.237C205.487 133.476 205.252 133.706 205.018 133.925H207.59V134.643H203.728Z" fill="#B9ACD3"/>
<path d="M228.892 168.039L231.925 162.777H228.495V162.059H232.754V162.777L229.712 168.039H228.892ZM235.189 168.15C234.833 168.15 234.508 168.069 234.215 167.907C233.925 167.744 233.693 167.528 233.519 167.257C233.348 166.984 233.263 166.682 233.263 166.352C233.263 166.044 233.344 165.762 233.506 165.506C233.668 165.247 233.881 165.042 234.143 164.891C233.929 164.754 233.752 164.574 233.613 164.349C233.476 164.121 233.408 163.874 233.408 163.61C233.408 163.302 233.488 163.023 233.647 162.772C233.809 162.522 234.024 162.323 234.292 162.174C234.563 162.024 234.862 161.948 235.189 161.948C235.517 161.948 235.814 162.024 236.082 162.174C236.352 162.323 236.567 162.522 236.727 162.772C236.889 163.023 236.97 163.302 236.97 163.61C236.97 163.874 236.902 164.121 236.765 164.349C236.629 164.574 236.451 164.754 236.231 164.891C236.502 165.042 236.717 165.247 236.876 165.506C237.039 165.762 237.12 166.044 237.12 166.352C237.12 166.679 237.033 166.98 236.859 167.253C236.685 167.526 236.452 167.744 236.159 167.907C235.868 168.069 235.545 168.15 235.189 168.15ZM235.189 167.433C235.405 167.433 235.601 167.384 235.774 167.287C235.951 167.19 236.092 167.061 236.197 166.899C236.302 166.733 236.355 166.551 236.355 166.352C236.355 166.15 236.302 165.967 236.197 165.805C236.092 165.643 235.951 165.513 235.774 165.416C235.601 165.32 235.405 165.271 235.189 165.271C234.975 165.271 234.78 165.32 234.604 165.416C234.427 165.513 234.286 165.643 234.181 165.805C234.076 165.967 234.023 166.15 234.023 166.352C234.023 166.551 234.076 166.733 234.181 166.899C234.286 167.061 234.427 167.19 234.604 167.287C234.78 167.384 234.975 167.433 235.189 167.433ZM235.189 164.554C235.377 164.554 235.548 164.511 235.702 164.425C235.855 164.34 235.978 164.226 236.069 164.084C236.163 163.941 236.21 163.783 236.21 163.61C236.21 163.433 236.163 163.275 236.069 163.136C235.978 162.993 235.855 162.879 235.702 162.794C235.548 162.708 235.377 162.666 235.189 162.666C235.001 162.666 234.83 162.708 234.676 162.794C234.523 162.879 234.399 162.993 234.305 163.136C234.214 163.275 234.168 163.433 234.168 163.61C234.168 163.783 234.214 163.941 234.305 164.084C234.399 164.226 234.523 164.34 234.676 164.425C234.83 164.511 235.001 164.554 235.189 164.554ZM238.19 168.15C238.081 168.15 237.989 168.112 237.912 168.035C237.838 167.958 237.801 167.864 237.801 167.753C237.801 167.648 237.838 167.556 237.912 167.48C237.989 167.403 238.081 167.364 238.19 167.364C238.301 167.364 238.395 167.403 238.472 167.48C238.548 167.556 238.587 167.648 238.587 167.753C238.587 167.864 238.548 167.958 238.472 168.035C238.395 168.112 238.301 168.15 238.19 168.15ZM241.388 168.15C241.018 168.15 240.682 168.06 240.38 167.881C240.078 167.702 239.839 167.462 239.662 167.163C239.489 166.862 239.402 166.53 239.402 166.168H240.119C240.119 166.399 240.176 166.611 240.29 166.805C240.404 166.995 240.556 167.148 240.747 167.262C240.941 167.376 241.154 167.433 241.388 167.433C241.619 167.433 241.829 167.376 242.02 167.262C242.211 167.148 242.363 166.995 242.477 166.805C242.591 166.611 242.648 166.399 242.648 166.168C242.648 165.938 242.594 165.725 242.486 165.532C242.38 165.338 242.225 165.184 242.02 165.07C241.815 164.954 241.566 164.895 241.273 164.895H239.799L240.38 162.059H243.216V162.777H240.961L240.683 164.178L241.303 164.182C241.71 164.191 242.067 164.282 242.375 164.455C242.685 164.626 242.927 164.86 243.101 165.156C243.277 165.449 243.366 165.787 243.366 166.168C243.366 166.439 243.314 166.695 243.212 166.937C243.109 167.176 242.967 167.387 242.785 167.569C242.602 167.751 242.392 167.894 242.153 167.996C241.916 168.099 241.661 168.15 241.388 168.15Z" fill="#B9ACD3"/>
<path d="M264.617 189.008L267.65 183.745H264.22V183.028H268.478V183.745L265.437 189.008H264.617ZM270.914 189.119C270.558 189.119 270.233 189.038 269.94 188.875C269.649 188.713 269.417 188.497 269.244 188.226C269.073 187.953 268.987 187.651 268.987 187.321C268.987 187.013 269.068 186.731 269.231 186.475C269.393 186.216 269.605 186.011 269.867 185.86C269.654 185.723 269.477 185.542 269.338 185.317C269.201 185.09 269.133 184.843 269.133 184.578C269.133 184.271 269.212 183.992 269.372 183.741C269.534 183.491 269.749 183.291 270.017 183.143C270.287 182.992 270.586 182.917 270.914 182.917C271.241 182.917 271.539 182.992 271.806 183.143C272.077 183.291 272.292 183.491 272.451 183.741C272.614 183.992 272.695 184.271 272.695 184.578C272.695 184.843 272.626 185.09 272.49 185.317C272.353 185.542 272.175 185.723 271.956 185.86C272.226 186.011 272.441 186.216 272.601 186.475C272.763 186.731 272.844 187.013 272.844 187.321C272.844 187.648 272.757 187.949 272.584 188.222C272.41 188.495 272.177 188.713 271.883 188.875C271.593 189.038 271.27 189.119 270.914 189.119ZM270.914 188.401C271.13 188.401 271.325 188.353 271.499 188.256C271.675 188.159 271.816 188.03 271.922 187.867C272.027 187.702 272.08 187.52 272.08 187.321C272.08 187.118 272.027 186.936 271.922 186.774C271.816 186.612 271.675 186.482 271.499 186.385C271.325 186.288 271.13 186.24 270.914 186.24C270.7 186.24 270.505 186.288 270.328 186.385C270.152 186.482 270.011 186.612 269.906 186.774C269.8 186.936 269.748 187.118 269.748 187.321C269.748 187.52 269.8 187.702 269.906 187.867C270.011 188.03 270.152 188.159 270.328 188.256C270.505 188.353 270.7 188.401 270.914 188.401ZM270.914 185.522C271.102 185.522 271.272 185.48 271.426 185.394C271.58 185.309 271.702 185.195 271.794 185.053C271.888 184.91 271.935 184.752 271.935 184.578C271.935 184.402 271.888 184.244 271.794 184.104C271.702 183.962 271.58 183.848 271.426 183.763C271.272 183.677 271.102 183.634 270.914 183.634C270.726 183.634 270.555 183.677 270.401 183.763C270.247 183.848 270.123 183.962 270.029 184.104C269.938 184.244 269.893 184.402 269.893 184.578C269.893 184.752 269.938 184.91 270.029 185.053C270.123 185.195 270.247 185.309 270.401 185.394C270.555 185.48 270.726 185.522 270.914 185.522ZM273.914 189.119C273.806 189.119 273.714 189.08 273.637 189.004C273.563 188.927 273.526 188.833 273.526 188.722C273.526 188.616 273.563 188.525 273.637 188.448C273.714 188.371 273.806 188.333 273.914 188.333C274.025 188.333 274.119 188.371 274.196 188.448C274.273 188.525 274.312 188.616 274.312 188.722C274.312 188.833 274.273 188.927 274.196 189.004C274.119 189.08 274.025 189.119 273.914 189.119ZM277.386 189.119C277.03 189.119 276.711 189.039 276.429 188.88C276.147 188.717 275.905 188.494 275.703 188.209C275.501 187.924 275.347 187.595 275.242 187.222C275.136 186.846 275.084 186.445 275.084 186.018C275.084 185.591 275.136 185.189 275.242 184.813C275.347 184.437 275.501 184.109 275.703 183.827C275.905 183.542 276.147 183.32 276.429 183.16C276.711 182.998 277.03 182.917 277.386 182.917C277.739 182.917 278.057 182.998 278.338 183.16C278.623 183.32 278.864 183.542 279.06 183.827C279.26 184.109 279.412 184.437 279.517 184.813C279.626 185.189 279.68 185.591 279.68 186.018C279.68 186.445 279.626 186.846 279.517 187.222C279.412 187.595 279.26 187.924 279.06 188.209C278.864 188.494 278.623 188.717 278.338 188.88C278.057 189.039 277.739 189.119 277.386 189.119ZM277.386 188.401C277.742 188.401 278.039 188.292 278.279 188.072C278.521 187.85 278.702 187.558 278.821 187.197C278.941 186.835 279.001 186.442 279.001 186.018C279.001 185.571 278.938 185.168 278.813 184.809C278.69 184.447 278.508 184.161 278.266 183.95C278.027 183.74 277.733 183.634 277.386 183.634C277.113 183.634 276.873 183.698 276.668 183.827C276.466 183.955 276.298 184.13 276.164 184.352C276.03 184.574 275.929 184.829 275.861 185.117C275.796 185.401 275.763 185.702 275.763 186.018C275.763 186.442 275.824 186.837 275.946 187.201C276.069 187.563 276.25 187.853 276.489 188.072C276.731 188.292 277.03 188.401 277.386 188.401Z" fill="#B9ACD3"/>
<path d="M11.6523 243.02L278.031 243.02" stroke="#1F1E22" stroke-width="0.776614"/>
<path d="M11.6523 243.02L11.6523 -21.0294" stroke="#1F1E22" stroke-width="0.776614"/>
<path d="M1.30083 45.8789L2.46187 43.8752C2.19005 43.9555 1.92212 43.9697 1.65807 43.918C1.39661 43.8636 1.15845 43.7575 0.943587 43.5995C0.728723 43.439 0.556574 43.2371 0.427138 42.9938C0.297702 42.7504 0.232984 42.4799 0.232984 42.1822C0.232984 41.9285 0.280876 41.6904 0.376658 41.4677C0.47244 41.2451 0.604465 41.0497 0.772731 40.8814C0.940998 40.7131 1.13515 40.5811 1.35519 40.4853C1.57782 40.3895 1.81598 40.3416 2.06968 40.3416C2.40621 40.3416 2.71168 40.4245 2.98608 40.5902C3.26307 40.7558 3.48441 40.9785 3.65009 41.2581C3.81835 41.535 3.90249 41.8431 3.90249 42.1822C3.90249 42.366 3.87919 42.5291 3.83259 42.6715C3.78858 42.8113 3.72128 42.964 3.63067 43.1297L2.05415 45.8789H1.30083ZM2.06191 43.3666C2.29231 43.3666 2.49682 43.3122 2.67544 43.2035C2.85665 43.0922 2.99773 42.9459 3.09869 42.7647C3.20224 42.5835 3.25401 42.3893 3.25401 42.1822C3.25401 41.957 3.19965 41.7551 3.09093 41.5765C2.9822 41.3953 2.83723 41.2529 2.65602 41.1493C2.47481 41.0432 2.27936 40.9901 2.06968 40.9901C1.83928 40.9901 1.63348 41.0458 1.45227 41.1571C1.27365 41.2684 1.13256 41.416 1.02901 41.5998C0.928054 41.781 0.877574 41.9751 0.877574 42.1822C0.877574 42.3997 0.929349 42.599 1.0329 42.7802C1.13903 42.9588 1.28141 43.1012 1.46004 43.2074C1.64125 43.3135 1.84187 43.3666 2.06191 43.3666ZM6.45931 45.9799C6.13572 45.9799 5.84578 45.9074 5.5895 45.7624C5.33322 45.6149 5.11318 45.4116 4.92938 45.1528C4.74558 44.8939 4.60579 44.5949 4.51001 44.2558C4.41422 43.9141 4.36633 43.5491 4.36633 43.1608C4.36633 42.7724 4.41422 42.4074 4.51001 42.0657C4.60579 41.724 4.74558 41.425 4.92938 41.1687C5.11318 40.9099 5.33322 40.7079 5.5895 40.563C5.84578 40.4154 6.13572 40.3416 6.45931 40.3416C6.78031 40.3416 7.06895 40.4154 7.32523 40.563C7.5841 40.7079 7.80285 40.9099 7.98147 41.1687C8.16268 41.425 8.30118 41.724 8.39696 42.0657C8.49533 42.4074 8.54452 42.7724 8.54452 43.1608C8.54452 43.5491 8.49533 43.9141 8.39696 44.2558C8.30118 44.5949 8.16268 44.8939 7.98147 45.1528C7.80285 45.4116 7.5841 45.6149 7.32523 45.7624C7.06895 45.9074 6.78031 45.9799 6.45931 45.9799ZM6.45931 45.3275C6.7829 45.3275 7.05342 45.2278 7.27087 45.0285C7.49091 44.8266 7.65529 44.5613 7.76402 44.2325C7.87275 43.9037 7.92711 43.5465 7.92711 43.1608C7.92711 42.7543 7.87016 42.388 7.75625 42.0618C7.64494 41.7331 7.47926 41.4729 7.25922 41.2813C7.04177 41.0898 6.77513 40.994 6.45931 40.994C6.21079 40.994 5.99334 41.0522 5.80695 41.1687C5.62315 41.2852 5.47042 41.4444 5.34875 41.6464C5.22708 41.8483 5.13518 42.08 5.07305 42.3414C5.01351 42.6003 4.98374 42.8734 4.98374 43.1608C4.98374 43.5465 5.0394 43.905 5.15071 44.2364C5.26203 44.5651 5.42641 44.8292 5.64386 45.0285C5.8639 45.2278 6.13572 45.3275 6.45931 45.3275Z" fill="#626069"/>
<path d="M2.06191 95.0443C1.73832 95.0443 1.44321 94.9705 1.17657 94.823C0.912522 94.6754 0.701542 94.4787 0.54363 94.2328C0.388307 93.9842 0.310646 93.7098 0.310646 93.4095C0.310646 93.13 0.384424 92.8737 0.531981 92.6407C0.679538 92.4051 0.872397 92.2187 1.11056 92.0815C0.916405 91.9573 0.755905 91.7929 0.629058 91.5884C0.504799 91.3813 0.44267 91.1574 0.44267 90.9166C0.44267 90.637 0.515154 90.3833 0.660122 90.1555C0.807679 89.9277 1.00313 89.7465 1.24647 89.6119C1.49239 89.4747 1.76421 89.4061 2.06191 89.4061C2.35961 89.4061 2.63013 89.4747 2.87347 89.6119C3.1194 89.7465 3.31485 89.9277 3.45982 90.1555C3.60737 90.3833 3.68115 90.637 3.68115 90.9166C3.68115 91.1574 3.61902 91.3813 3.49476 91.5884C3.37051 91.7929 3.20871 91.9573 3.00938 92.0815C3.25531 92.2187 3.45076 92.4051 3.59572 92.6407C3.74328 92.8737 3.81706 93.13 3.81706 93.4095C3.81706 93.7072 3.7381 93.9804 3.58019 94.2289C3.42228 94.4774 3.21001 94.6754 2.94337 94.823C2.67932 94.9705 2.3855 95.0443 2.06191 95.0443ZM2.06191 94.392C2.25865 94.392 2.43598 94.348 2.59389 94.2599C2.75439 94.1719 2.88253 94.0541 2.97832 93.9066C3.0741 93.7564 3.12199 93.5908 3.12199 93.4095C3.12199 93.2257 3.0741 93.0601 2.97832 92.9125C2.88253 92.765 2.75439 92.6472 2.59389 92.5592C2.43598 92.4711 2.25865 92.4271 2.06191 92.4271C1.86776 92.4271 1.69043 92.4711 1.52993 92.5592C1.36943 92.6472 1.24129 92.765 1.14551 92.9125C1.04972 93.0601 1.00183 93.2257 1.00183 93.4095C1.00183 93.5908 1.04972 93.7564 1.14551 93.9066C1.24129 94.0541 1.36943 94.1719 1.52993 94.2599C1.69043 94.348 1.86776 94.392 2.06191 94.392ZM2.06191 91.7748C2.23277 91.7748 2.38809 91.7359 2.52788 91.6583C2.66767 91.5806 2.77899 91.4771 2.86182 91.3476C2.94725 91.2182 2.98997 91.0745 2.98997 90.9166C2.98997 90.7561 2.94725 90.6124 2.86182 90.4856C2.77899 90.3562 2.66767 90.2526 2.52788 90.1749C2.38809 90.0973 2.23277 90.0585 2.06191 90.0585C1.89106 90.0585 1.73573 90.0973 1.59594 90.1749C1.45615 90.2526 1.34354 90.3562 1.25812 90.4856C1.17528 90.6124 1.13386 90.7561 1.13386 90.9166C1.13386 91.0745 1.17528 91.2182 1.25812 91.3476C1.34354 91.4771 1.45615 91.5806 1.59594 91.6583C1.73573 91.7359 1.89106 91.7748 2.06191 91.7748ZM6.45172 95.0443C6.12813 95.0443 5.8382 94.9718 5.58192 94.8269C5.32563 94.6793 5.10559 94.4761 4.92179 94.2172C4.73799 93.9584 4.5982 93.6594 4.50242 93.3202C4.40664 92.9785 4.35875 92.6135 4.35875 92.2252C4.35875 91.8369 4.40664 91.4719 4.50242 91.1302C4.5982 90.7885 4.73799 90.4895 4.92179 90.2332C5.10559 89.9743 5.32563 89.7724 5.58192 89.6274C5.8382 89.4799 6.12813 89.4061 6.45172 89.4061C6.77272 89.4061 7.06137 89.4799 7.31765 89.6274C7.57652 89.7724 7.79527 89.9743 7.97389 90.2332C8.1551 90.4895 8.29359 90.7885 8.38938 91.1302C8.48775 91.4719 8.53693 91.8369 8.53693 92.2252C8.53693 92.6135 8.48775 92.9785 8.38938 93.3202C8.29359 93.6594 8.1551 93.9584 7.97389 94.2172C7.79527 94.4761 7.57652 94.6793 7.31765 94.8269C7.06137 94.9718 6.77272 95.0443 6.45172 95.0443ZM6.45172 94.392C6.77531 94.392 7.04583 94.2923 7.26329 94.093C7.48333 93.891 7.64771 93.6257 7.75644 93.2969C7.86516 92.9682 7.91953 92.6109 7.91953 92.2252C7.91953 91.8188 7.86257 91.4525 7.74867 91.1263C7.63736 90.7975 7.47168 90.5374 7.25164 90.3458C7.03418 90.1542 6.76755 90.0585 6.45172 90.0585C6.20321 90.0585 5.98576 90.1167 5.79937 90.2332C5.61557 90.3497 5.46284 90.5089 5.34117 90.7108C5.2195 90.9127 5.1276 91.1444 5.06547 91.4059C5.00593 91.6648 4.97616 91.9379 4.97616 92.2252C4.97616 92.6109 5.03181 92.9695 5.14313 93.3008C5.25444 93.6296 5.41883 93.8936 5.63628 94.093C5.85632 94.2923 6.12813 94.392 6.45172 94.392Z" fill="#626069"/>
<path d="M0.516449 144.008L3.27343 139.224H0.155323V138.572H4.02675V139.224L1.262 144.008H0.516449ZM6.50481 144.109C6.18122 144.109 5.89129 144.036 5.635 143.891C5.37872 143.744 5.15868 143.541 4.97488 143.282C4.79108 143.023 4.65129 142.724 4.55551 142.385C4.45973 142.043 4.41184 141.678 4.41184 141.29C4.41184 140.901 4.45973 140.536 4.55551 140.195C4.65129 139.853 4.79108 139.554 4.97488 139.298C5.15868 139.039 5.37872 138.837 5.635 138.692C5.89129 138.544 6.18122 138.471 6.50481 138.471C6.82581 138.471 7.11446 138.544 7.37074 138.692C7.62961 138.837 7.84836 139.039 8.02698 139.298C8.20819 139.554 8.34668 139.853 8.44247 140.195C8.54084 140.536 8.59002 140.901 8.59002 141.29C8.59002 141.678 8.54084 142.043 8.44247 142.385C8.34668 142.724 8.20819 143.023 8.02698 143.282C7.84836 143.541 7.62961 143.744 7.37074 143.891C7.11446 144.036 6.82581 144.109 6.50481 144.109ZM6.50481 143.456C6.8284 143.456 7.09892 143.357 7.31637 143.157C7.53642 142.955 7.7008 142.69 7.80953 142.361C7.91825 142.033 7.97261 141.675 7.97261 141.29C7.97261 140.883 7.91566 140.517 7.80176 140.191C7.69044 139.862 7.52477 139.602 7.30473 139.41C7.08727 139.219 6.82064 139.123 6.50481 139.123C6.2563 139.123 6.03884 139.181 5.85246 139.298C5.66866 139.414 5.51592 139.573 5.39425 139.775C5.27258 139.977 5.18069 140.209 5.11856 140.47C5.05902 140.729 5.02925 141.002 5.02925 141.29C5.02925 141.675 5.0849 142.034 5.19622 142.365C5.30753 142.694 5.47192 142.958 5.68937 143.157C5.90941 143.357 6.18122 143.456 6.50481 143.456Z" fill="#626069"/>
<path d="M2.07744 193.173C1.73314 193.173 1.41862 193.088 1.13386 192.917C0.849098 192.746 0.621292 192.518 0.450436 192.234C0.279581 191.946 0.194154 191.629 0.194154 191.282C0.194154 191.088 0.216158 190.918 0.260166 190.773C0.306763 190.629 0.375364 190.472 0.465969 190.304L2.00367 187.636H2.76086L1.66195 189.543C1.88458 189.473 2.10592 189.448 2.32596 189.469C2.546 189.489 2.75439 189.549 2.95113 189.647C3.15047 189.746 3.3265 189.875 3.47923 190.036C3.63197 190.196 3.75234 190.383 3.84036 190.595C3.92837 190.805 3.97238 191.034 3.97238 191.282C3.97238 191.544 3.9219 191.788 3.82094 192.016C3.72257 192.244 3.58666 192.445 3.41322 192.618C3.24237 192.791 3.04174 192.927 2.81134 193.026C2.58095 193.124 2.33632 193.173 2.07744 193.173ZM2.07744 192.521C2.31561 192.521 2.52788 192.463 2.71427 192.346C2.90324 192.23 3.0508 192.077 3.15694 191.888C3.26566 191.699 3.32003 191.497 3.32003 191.282C3.32003 191.057 3.26437 190.851 3.15305 190.665C3.04433 190.478 2.89548 190.33 2.7065 190.218C2.52011 190.104 2.31302 190.047 2.08521 190.047C1.84705 190.047 1.63477 190.106 1.44839 190.222C1.262 190.339 1.11444 190.49 1.00572 190.676C0.899578 190.863 0.84651 191.065 0.84651 191.282C0.84651 191.518 0.903461 191.729 1.01736 191.915C1.13127 192.101 1.28141 192.249 1.4678 192.358C1.65678 192.467 1.85999 192.521 2.07744 192.521ZM6.52757 193.173C6.20398 193.173 5.91404 193.101 5.65776 192.956C5.40147 192.808 5.18143 192.605 4.99764 192.346C4.81384 192.087 4.67405 191.788 4.57826 191.449C4.48248 191.107 4.43459 190.742 4.43459 190.354C4.43459 189.966 4.48248 189.601 4.57826 189.259C4.67405 188.917 4.81384 188.618 4.99764 188.362C5.18143 188.103 5.40147 187.901 5.65776 187.756C5.91404 187.609 6.20398 187.535 6.52757 187.535C6.84857 187.535 7.13721 187.609 7.39349 187.756C7.65236 187.901 7.87111 188.103 8.04973 188.362C8.23094 188.618 8.36944 188.917 8.46522 189.259C8.56359 189.601 8.61278 189.966 8.61278 190.354C8.61278 190.742 8.56359 191.107 8.46522 191.449C8.36944 191.788 8.23094 192.087 8.04973 192.346C7.87111 192.605 7.65236 192.808 7.39349 192.956C7.13721 193.101 6.84857 193.173 6.52757 193.173ZM6.52757 192.521C6.85115 192.521 7.12168 192.421 7.33913 192.222C7.55917 192.02 7.72355 191.755 7.83228 191.426C7.941 191.097 7.99537 190.74 7.99537 190.354C7.99537 189.948 7.93842 189.581 7.82451 189.255C7.7132 188.926 7.54752 188.666 7.32748 188.475C7.11003 188.283 6.84339 188.187 6.52757 188.187C6.27905 188.187 6.0616 188.246 5.87521 188.362C5.69141 188.479 5.53868 188.638 5.41701 188.84C5.29534 189.042 5.20344 189.273 5.14131 189.535C5.08177 189.794 5.052 190.067 5.052 190.354C5.052 190.74 5.10766 191.098 5.21897 191.43C5.33028 191.758 5.49467 192.023 5.71212 192.222C5.93216 192.421 6.20398 192.521 6.52757 192.521Z" fill="#626069"/>
<path d="M2.07744 242.238C1.74091 242.238 1.43544 242.156 1.16104 241.993C0.886635 241.83 0.669183 241.613 0.508682 241.341C0.350771 241.066 0.271815 240.765 0.271815 240.436H0.924171C0.924171 240.646 0.975945 240.838 1.07949 241.015C1.18304 241.188 1.32154 241.326 1.49498 241.43C1.67102 241.534 1.86517 241.585 2.07744 241.585C2.28713 241.585 2.47869 241.534 2.65214 241.43C2.82558 241.326 2.96408 241.188 3.06763 241.015C3.17118 240.838 3.22295 240.646 3.22295 240.436C3.22295 240.226 3.17376 240.033 3.07539 239.857C2.97961 239.681 2.83853 239.542 2.65214 239.438C2.46575 239.332 2.23924 239.279 1.9726 239.279H0.632941L1.16104 236.7H3.7394V237.353H1.68914L1.43674 238.626L1.99978 238.63C2.36997 238.638 2.69485 238.721 2.97443 238.879C3.2566 239.034 3.47664 239.246 3.63456 239.516C3.79506 239.782 3.87531 240.089 3.87531 240.436C3.87531 240.682 3.82871 240.915 3.73552 241.135C3.64232 241.352 3.51289 241.544 3.34721 241.71C3.18153 241.875 2.98997 242.005 2.77251 242.098C2.55765 242.191 2.32596 242.238 2.07744 242.238ZM6.42897 242.238C6.10538 242.238 5.81545 242.165 5.55916 242.02C5.30288 241.873 5.08284 241.669 4.89904 241.411C4.71524 241.152 4.57545 240.853 4.47967 240.514C4.38389 240.172 4.336 239.807 4.336 239.419C4.336 239.03 4.38389 238.665 4.47967 238.324C4.57545 237.982 4.71524 237.683 4.89904 237.427C5.08284 237.168 5.30288 236.966 5.55916 236.821C5.81545 236.673 6.10538 236.599 6.42897 236.599C6.74997 236.599 7.03861 236.673 7.2949 236.821C7.55377 236.966 7.77251 237.168 7.95114 237.427C8.13235 237.683 8.27084 237.982 8.36662 238.324C8.465 238.665 8.51418 239.03 8.51418 239.419C8.51418 239.807 8.465 240.172 8.36662 240.514C8.27084 240.853 8.13235 241.152 7.95114 241.411C7.77251 241.669 7.55377 241.873 7.2949 242.02C7.03861 242.165 6.74997 242.238 6.42897 242.238ZM6.42897 241.585C6.75256 241.585 7.02308 241.486 7.24053 241.286C7.46057 241.084 7.62496 240.819 7.73368 240.49C7.84241 240.162 7.89677 239.804 7.89677 239.419C7.89677 239.012 7.83982 238.646 7.72592 238.32C7.6146 237.991 7.44893 237.731 7.22888 237.539C7.01143 237.348 6.74479 237.252 6.42897 237.252C6.18046 237.252 5.963 237.31 5.77662 237.427C5.59282 237.543 5.44008 237.702 5.31841 237.904C5.19674 238.106 5.10484 238.338 5.04272 238.599C4.98317 238.858 4.9534 239.131 4.9534 239.419C4.9534 239.804 5.00906 240.163 5.12038 240.494C5.23169 240.823 5.39607 241.087 5.61353 241.286C5.83357 241.486 6.10538 241.585 6.42897 241.585Z" fill="#626069"/>
</g>
<defs>
<linearGradient id="paint0_linear_4773_90489" x1="144.84" y1="72.1621" x2="145.228" y2="256.22" gradientUnits="userSpaceOnUse">
<stop stop-color="#6930FF" stop-opacity="0.44"/>
<stop offset="0.501505" stop-color="#662BFF" stop-opacity="0.21"/>
<stop offset="1" stop-color="#6124FF" stop-opacity="0"/>
</linearGradient>
<clipPath id="clip0_4773_90489">
<rect width="6.8858" height="6.8858" fill="white" transform="translate(42.6074 29.9844) rotate(-180)"/>
</clipPath>
<clipPath id="clip1_4773_90489">
<rect width="280" height="223.824" fill="white" transform="translate(0 40.2129)"/>
</clipPath>
</defs>
</svg>
