<svg width="108" height="108" viewBox="0 0 108 108" fill="none" xmlns="http://www.w3.org/2000/svg">
<g clip-path="url(#clip0_3925_99522)">
<path d="M0 0H108V108H0V0Z" fill="white"/>
<path d="M0 0H26.069V3.72414H0V0ZM40.9655 0H52.1379V3.72414H40.9655V0ZM67.0345 0H70.7586V3.72414H67.0345V0ZM74.4828 0H78.2069V3.72414H74.4828V0ZM81.931 0H108V3.72414H81.931V0ZM0 3.72414H3.72414V7.44828H0V3.72414ZM22.3448 3.72414H26.069V7.44828H22.3448V3.72414ZM29.7931 3.72414H37.2414V7.44828H29.7931V3.72414ZM40.9655 3.72414H48.4138V7.44828H40.9655V3.72414ZM52.1379 3.72414H55.8621V7.44828H52.1379V3.72414ZM59.5862 3.72414H67.0345V7.44828H59.5862V3.72414ZM74.4828 3.72414H78.2069V7.44828H74.4828V3.72414ZM81.931 3.72414H85.6552V7.44828H81.931V3.72414ZM104.276 3.72414H108V7.44828H104.276V3.72414ZM0 7.44828H3.72414V11.1724H0V7.44828ZM7.44828 7.44828H18.6207V11.1724H7.44828V7.44828ZM22.3448 7.44828H26.069V11.1724H22.3448V7.44828ZM29.7931 7.44828H33.5172V11.1724H29.7931V7.44828ZM37.2414 7.44828H44.6897V11.1724H37.2414V7.44828ZM55.8621 7.44828H59.5862V11.1724H55.8621V7.44828ZM74.4828 7.44828H78.2069V11.1724H74.4828V7.44828ZM81.931 7.44828H85.6552V11.1724H81.931V7.44828ZM89.3793 7.44828H100.552V11.1724H89.3793V7.44828ZM104.276 7.44828H108V11.1724H104.276V7.44828ZM0 11.1724H3.72414V14.8966H0V11.1724ZM7.44828 11.1724H18.6207V14.8966H7.44828V11.1724ZM22.3448 11.1724H26.069V14.8966H22.3448V11.1724ZM29.7931 11.1724H33.5172V14.8966H29.7931V11.1724ZM37.2414 11.1724H40.9655V14.8966H37.2414V11.1724ZM44.6897 11.1724H48.4138V14.8966H44.6897V11.1724ZM52.1379 11.1724H67.0345V14.8966H52.1379V11.1724ZM70.7586 11.1724H78.2069V14.8966H70.7586V11.1724ZM81.931 11.1724H85.6552V14.8966H81.931V11.1724ZM89.3793 11.1724H100.552V14.8966H89.3793V11.1724ZM104.276 11.1724H108V14.8966H104.276V11.1724ZM0 14.8966H3.72414V18.6207H0V14.8966ZM7.44828 14.8966H18.6207V18.6207H7.44828V14.8966ZM22.3448 14.8966H26.069V18.6207H22.3448V14.8966ZM33.5172 14.8966H44.6897V18.6207H33.5172V14.8966ZM48.4138 14.8966H52.1379V18.6207H48.4138V14.8966ZM59.5862 14.8966H63.3103V18.6207H59.5862V14.8966ZM67.0345 14.8966H78.2069V18.6207H67.0345V14.8966ZM81.931 14.8966H85.6552V18.6207H81.931V14.8966ZM89.3793 14.8966H100.552V18.6207H89.3793V14.8966ZM104.276 14.8966H108V18.6207H104.276V14.8966ZM0 18.6207H3.72414V22.3448H0V18.6207ZM22.3448 18.6207H26.069V22.3448H22.3448V18.6207ZM37.2414 18.6207H40.9655V22.3448H37.2414V18.6207ZM48.4138 18.6207H55.8621V22.3448H48.4138V18.6207ZM67.0345 18.6207H70.7586V22.3448H67.0345V18.6207ZM74.4828 18.6207H78.2069V22.3448H74.4828V18.6207ZM81.931 18.6207H85.6552V22.3448H81.931V18.6207ZM104.276 18.6207H108V22.3448H104.276V18.6207ZM0 22.3448H26.069V26.069H0V22.3448ZM29.7931 22.3448H33.5172V26.069H29.7931V22.3448ZM37.2414 22.3448H40.9655V26.069H37.2414V22.3448ZM44.6897 22.3448H48.4138V26.069H44.6897V22.3448ZM52.1379 22.3448H55.8621V26.069H52.1379V22.3448ZM59.5862 22.3448H63.3103V26.069H59.5862V22.3448ZM67.0345 22.3448H70.7586V26.069H67.0345V22.3448ZM74.4828 22.3448H78.2069V26.069H74.4828V22.3448ZM81.931 22.3448H108V26.069H81.931V22.3448ZM29.7931 26.069H37.2414V29.7931H29.7931V26.069ZM40.9655 26.069H44.6897V29.7931H40.9655V26.069ZM48.4138 26.069H52.1379V29.7931H48.4138V26.069ZM55.8621 26.069H63.3103V29.7931H55.8621V26.069ZM70.7586 26.069H78.2069V29.7931H70.7586V26.069ZM0 29.7931H3.72414V33.5172H0V29.7931ZM22.3448 29.7931H26.069V33.5172H22.3448V29.7931ZM29.7931 29.7931H33.5172V33.5172H29.7931V29.7931ZM37.2414 29.7931H48.4138V33.5172H37.2414V29.7931ZM52.1379 29.7931H59.5862V33.5172H52.1379V29.7931ZM63.3103 29.7931H67.0345V33.5172H63.3103V29.7931ZM70.7586 29.7931H74.4828V33.5172H70.7586V29.7931ZM78.2069 29.7931H85.6552V33.5172H78.2069V29.7931ZM93.1034 29.7931H104.276V33.5172H93.1034V29.7931ZM7.44828 33.5172H18.6207V37.2414H7.44828V33.5172ZM26.069 33.5172H48.4138V37.2414H26.069V33.5172ZM52.1379 33.5172H59.5862V37.2414H52.1379V33.5172ZM70.7586 33.5172H74.4828V37.2414H70.7586V33.5172ZM89.3793 33.5172H93.1034V37.2414H89.3793V33.5172ZM96.8276 33.5172H104.276V37.2414H96.8276V33.5172ZM3.72414 37.2414H7.44828V40.9655H3.72414V37.2414ZM11.1724 37.2414H14.8966V40.9655H11.1724V37.2414ZM22.3448 37.2414H26.069V40.9655H22.3448V37.2414ZM29.7931 37.2414H44.6897V40.9655H29.7931V37.2414ZM55.8621 37.2414H63.3103V40.9655H55.8621V37.2414ZM67.0345 37.2414H70.7586V40.9655H67.0345V37.2414ZM74.4828 37.2414H78.2069V40.9655H74.4828V37.2414ZM81.931 37.2414H89.3793V40.9655H81.931V37.2414ZM0 40.9655H3.72414V44.6897H0V40.9655ZM11.1724 40.9655H18.6207V44.6897H11.1724V40.9655ZM29.7931 40.9655H44.6897V44.6897H29.7931V40.9655ZM52.1379 40.9655H55.8621V44.6897H52.1379V40.9655ZM59.5862 40.9655H63.3103V44.6897H59.5862V40.9655ZM67.0345 40.9655H74.4828V44.6897H67.0345V40.9655ZM81.931 40.9655H85.6552V44.6897H81.931V40.9655ZM89.3793 40.9655H96.8276V44.6897H89.3793V40.9655ZM3.72414 44.6897H7.44828V48.4138H3.72414V44.6897ZM14.8966 44.6897H18.6207V48.4138H14.8966V44.6897ZM22.3448 44.6897H26.069V48.4138H22.3448V44.6897ZM37.2414 44.6897H40.9655V48.4138H37.2414V44.6897ZM44.6897 44.6897H55.8621V48.4138H44.6897V44.6897ZM59.5862 44.6897H63.3103V48.4138H59.5862V44.6897ZM70.7586 44.6897H78.2069V48.4138H70.7586V44.6897ZM81.931 44.6897H85.6552V48.4138H81.931V44.6897ZM104.276 44.6897H108V48.4138H104.276V44.6897ZM0 48.4138H3.72414V52.1379H0V48.4138ZM7.44828 48.4138H14.8966V52.1379H7.44828V48.4138ZM29.7931 48.4138H37.2414V52.1379H29.7931V48.4138ZM44.6897 48.4138H59.5862V52.1379H44.6897V48.4138ZM70.7586 48.4138H78.2069V52.1379H70.7586V48.4138ZM81.931 48.4138H93.1034V52.1379H81.931V48.4138ZM100.552 48.4138H108V52.1379H100.552V48.4138ZM0 52.1379H11.1724V55.8621H0V52.1379ZM22.3448 52.1379H26.069V55.8621H22.3448V52.1379ZM29.7931 52.1379H40.9655V55.8621H29.7931V52.1379ZM48.4138 52.1379H63.3103V55.8621H48.4138V52.1379ZM67.0345 52.1379H70.7586V55.8621H67.0345V52.1379ZM78.2069 52.1379H81.931V55.8621H78.2069V52.1379ZM89.3793 52.1379H100.552V55.8621H89.3793V52.1379ZM7.44828 55.8621H14.8966V59.5862H7.44828V55.8621ZM26.069 55.8621H55.8621V59.5862H26.069V55.8621ZM67.0345 55.8621H74.4828V59.5862H67.0345V55.8621ZM78.2069 55.8621H85.6552V59.5862H78.2069V55.8621ZM89.3793 55.8621H93.1034V59.5862H89.3793V55.8621ZM96.8276 55.8621H100.552V59.5862H96.8276V55.8621ZM104.276 55.8621H108V59.5862H104.276V55.8621ZM0 59.5862H3.72414V63.3103H0V59.5862ZM7.44828 59.5862H11.1724V63.3103H7.44828V59.5862ZM14.8966 59.5862H18.6207V63.3103H14.8966V59.5862ZM22.3448 59.5862H33.5172V63.3103H22.3448V59.5862ZM52.1379 59.5862H59.5862V63.3103H52.1379V59.5862ZM63.3103 59.5862H74.4828V63.3103H63.3103V59.5862ZM85.6552 59.5862H89.3793V63.3103H85.6552V59.5862ZM93.1034 59.5862H100.552V63.3103H93.1034V59.5862ZM0 63.3103H7.44828V67.0345H0V63.3103ZM18.6207 63.3103H22.3448V67.0345H18.6207V63.3103ZM26.069 63.3103H29.7931V67.0345H26.069V63.3103ZM33.5172 63.3103H44.6897V67.0345H33.5172V63.3103ZM55.8621 63.3103H74.4828V67.0345H55.8621V63.3103ZM78.2069 63.3103H93.1034V67.0345H78.2069V63.3103ZM96.8276 63.3103H108V67.0345H96.8276V63.3103ZM0 67.0345H11.1724V70.7586H0V67.0345ZM14.8966 67.0345H29.7931V70.7586H14.8966V67.0345ZM33.5172 67.0345H37.2414V70.7586H33.5172V67.0345ZM48.4138 67.0345H63.3103V70.7586H48.4138V67.0345ZM70.7586 67.0345H74.4828V70.7586H70.7586V67.0345ZM78.2069 67.0345H96.8276V70.7586H78.2069V67.0345ZM104.276 67.0345H108V70.7586H104.276V67.0345ZM0 70.7586H3.72414V74.4828H0V70.7586ZM14.8966 70.7586H18.6207V74.4828H14.8966V70.7586ZM26.069 70.7586H29.7931V74.4828H26.069V70.7586ZM33.5172 70.7586H37.2414V74.4828H33.5172V70.7586ZM40.9655 70.7586H44.6897V74.4828H40.9655V70.7586ZM52.1379 70.7586H55.8621V74.4828H52.1379V70.7586ZM59.5862 70.7586H63.3103V74.4828H59.5862V70.7586ZM74.4828 70.7586H78.2069V74.4828H74.4828V70.7586ZM89.3793 70.7586H93.1034V74.4828H89.3793V70.7586ZM0 74.4828H3.72414V78.2069H0V74.4828ZM11.1724 74.4828H18.6207V78.2069H11.1724V74.4828ZM22.3448 74.4828H26.069V78.2069H22.3448V74.4828ZM63.3103 74.4828H67.0345V78.2069H63.3103V74.4828ZM74.4828 74.4828H93.1034V78.2069H74.4828V74.4828ZM96.8276 74.4828H108V78.2069H96.8276V74.4828ZM29.7931 78.2069H33.5172V81.931H29.7931V78.2069ZM40.9655 78.2069H52.1379V81.931H40.9655V78.2069ZM55.8621 78.2069H59.5862V81.931H55.8621V78.2069ZM74.4828 78.2069H78.2069V81.931H74.4828V78.2069ZM89.3793 78.2069H96.8276V81.931H89.3793V78.2069ZM0 81.931H26.069V85.6552H0V81.931ZM33.5172 81.931H44.6897V85.6552H33.5172V81.931ZM48.4138 81.931H59.5862V85.6552H48.4138V81.931ZM63.3103 81.931H78.2069V85.6552H63.3103V81.931ZM81.931 81.931H85.6552V85.6552H81.931V81.931ZM89.3793 81.931H100.552V85.6552H89.3793V81.931ZM0 85.6552H3.72414V89.3793H0V85.6552ZM22.3448 85.6552H26.069V89.3793H22.3448V85.6552ZM37.2414 85.6552H40.9655V89.3793H37.2414V85.6552ZM48.4138 85.6552H52.1379V89.3793H48.4138V85.6552ZM55.8621 85.6552H59.5862V89.3793H55.8621V85.6552ZM70.7586 85.6552H78.2069V89.3793H70.7586V85.6552ZM89.3793 85.6552H93.1034V89.3793H89.3793V85.6552ZM100.552 85.6552H104.276V89.3793H100.552V85.6552ZM0 89.3793H3.72414V93.1034H0V89.3793ZM7.44828 89.3793H18.6207V93.1034H7.44828V89.3793ZM22.3448 89.3793H26.069V93.1034H22.3448V89.3793ZM33.5172 89.3793H40.9655V93.1034H33.5172V89.3793ZM48.4138 89.3793H52.1379V93.1034H48.4138V89.3793ZM55.8621 89.3793H63.3103V93.1034H55.8621V89.3793ZM70.7586 89.3793H96.8276V93.1034H70.7586V89.3793ZM104.276 89.3793H108V93.1034H104.276V89.3793ZM0 93.1034H3.72414V96.8276H0V93.1034ZM7.44828 93.1034H18.6207V96.8276H7.44828V93.1034ZM22.3448 93.1034H26.069V96.8276H22.3448V93.1034ZM37.2414 93.1034H44.6897V96.8276H37.2414V93.1034ZM48.4138 93.1034H52.1379V96.8276H48.4138V93.1034ZM55.8621 93.1034H63.3103V96.8276H55.8621V93.1034ZM78.2069 93.1034H81.931V96.8276H78.2069V93.1034ZM85.6552 93.1034H89.3793V96.8276H85.6552V93.1034ZM93.1034 93.1034H100.552V96.8276H93.1034V93.1034ZM104.276 93.1034H108V96.8276H104.276V93.1034ZM0 96.8276H3.72414V100.552H0V96.8276ZM7.44828 96.8276H18.6207V100.552H7.44828V96.8276ZM22.3448 96.8276H26.069V100.552H22.3448V96.8276ZM33.5172 96.8276H37.2414V100.552H33.5172V96.8276ZM40.9655 96.8276H48.4138V100.552H40.9655V96.8276ZM55.8621 96.8276H63.3103V100.552H55.8621V96.8276ZM70.7586 96.8276H78.2069V100.552H70.7586V96.8276ZM81.931 96.8276H104.276V100.552H81.931V96.8276ZM0 100.552H3.72414V104.276H0V100.552ZM22.3448 100.552H26.069V104.276H22.3448V100.552ZM44.6897 100.552H48.4138V104.276H44.6897V100.552ZM59.5862 100.552H63.3103V104.276H59.5862V100.552ZM67.0345 100.552H70.7586V104.276H67.0345V100.552ZM81.931 100.552H100.552V104.276H81.931V100.552ZM104.276 100.552H108V104.276H104.276V100.552ZM0 104.276H26.069V108H0V104.276ZM29.7931 104.276H40.9655V108H29.7931V104.276ZM48.4138 104.276H59.5862V108H48.4138V104.276ZM63.3103 104.276H67.0345V108H63.3103V104.276ZM70.7586 104.276H74.4828V108H70.7586V104.276ZM78.2069 104.276H81.931V108H78.2069V104.276ZM89.3793 104.276H93.1034V108H89.3793V104.276ZM96.8276 104.276H100.552V108H96.8276V104.276Z" fill="#0D0D14"/>
</g>
<defs>
<clipPath id="clip0_3925_99522">
<rect width="108" height="108" fill="white"/>
</clipPath>
</defs>
</svg>
