<svg width="108" height="108" viewBox="0 0 108 108" fill="none" xmlns="http://www.w3.org/2000/svg">
<g clip-path="url(#clip0_3925_99547)">
<path d="M0 0H108V108H0V0Z" fill="white"/>
<path d="M0 0H22.9091V3.27273H0V0ZM26.1818 0H29.4545V3.27273H26.1818V0ZM36 0H42.5455V3.27273H36V0ZM58.9091 0H72V3.27273H58.9091V0ZM75.2727 0H78.5455V3.27273H75.2727V0ZM85.0909 0H108V3.27273H85.0909V0ZM0 3.27273H3.27273V6.54545H0V3.27273ZM19.6364 3.27273H22.9091V6.54545H19.6364V3.27273ZM32.7273 3.27273H39.2727V6.54545H32.7273V3.27273ZM42.5455 3.27273H45.8182V6.54545H42.5455V3.27273ZM49.0909 3.27273H52.3636V6.54545H49.0909V3.27273ZM65.4545 3.27273H75.2727V6.54545H65.4545V3.27273ZM78.5455 3.27273H81.8182V6.54545H78.5455V3.27273ZM85.0909 3.27273H88.3636V6.54545H85.0909V3.27273ZM104.727 3.27273H108V6.54545H104.727V3.27273ZM0 6.54545H3.27273V9.81818H0V6.54545ZM6.54545 6.54545H16.3636V9.81818H6.54545V6.54545ZM19.6364 6.54545H22.9091V9.81818H19.6364V6.54545ZM29.4545 6.54545H42.5455V9.81818H29.4545V6.54545ZM45.8182 6.54545H49.0909V9.81818H45.8182V6.54545ZM58.9091 6.54545H65.4545V9.81818H58.9091V6.54545ZM68.7273 6.54545H72V9.81818H68.7273V6.54545ZM75.2727 6.54545H78.5455V9.81818H75.2727V6.54545ZM85.0909 6.54545H88.3636V9.81818H85.0909V6.54545ZM91.6364 6.54545H101.455V9.81818H91.6364V6.54545ZM104.727 6.54545H108V9.81818H104.727V6.54545ZM0 9.81818H3.27273V13.0909H0V9.81818ZM6.54545 9.81818H16.3636V13.0909H6.54545V9.81818ZM19.6364 9.81818H22.9091V13.0909H19.6364V9.81818ZM39.2727 9.81818H55.6364V13.0909H39.2727V9.81818ZM58.9091 9.81818H62.1818V13.0909H58.9091V9.81818ZM65.4545 9.81818H68.7273V13.0909H65.4545V9.81818ZM72 9.81818H78.5455V13.0909H72V9.81818ZM85.0909 9.81818H88.3636V13.0909H85.0909V9.81818ZM91.6364 9.81818H101.455V13.0909H91.6364V9.81818ZM104.727 9.81818H108V13.0909H104.727V9.81818ZM0 13.0909H3.27273V16.3636H0V13.0909ZM6.54545 13.0909H16.3636V16.3636H6.54545V13.0909ZM19.6364 13.0909H22.9091V16.3636H19.6364V13.0909ZM26.1818 13.0909H36V16.3636H26.1818V13.0909ZM42.5455 13.0909H52.3636V16.3636H42.5455V13.0909ZM55.6364 13.0909H72V16.3636H55.6364V13.0909ZM75.2727 13.0909H78.5455V16.3636H75.2727V13.0909ZM85.0909 13.0909H88.3636V16.3636H85.0909V13.0909ZM91.6364 13.0909H101.455V16.3636H91.6364V13.0909ZM104.727 13.0909H108V16.3636H104.727V13.0909ZM0 16.3636H3.27273V19.6364H0V16.3636ZM19.6364 16.3636H22.9091V19.6364H19.6364V16.3636ZM26.1818 16.3636H29.4545V19.6364H26.1818V16.3636ZM36 16.3636H42.5455V19.6364H36V16.3636ZM49.0909 16.3636H52.3636V19.6364H49.0909V16.3636ZM55.6364 16.3636H58.9091V19.6364H55.6364V16.3636ZM65.4545 16.3636H68.7273V19.6364H65.4545V16.3636ZM72 16.3636H75.2727V19.6364H72V16.3636ZM85.0909 16.3636H88.3636V19.6364H85.0909V16.3636ZM104.727 16.3636H108V19.6364H104.727V16.3636ZM0 19.6364H22.9091V22.9091H0V19.6364ZM26.1818 19.6364H29.4545V22.9091H26.1818V19.6364ZM32.7273 19.6364H36V22.9091H32.7273V19.6364ZM39.2727 19.6364H42.5455V22.9091H39.2727V19.6364ZM45.8182 19.6364H49.0909V22.9091H45.8182V19.6364ZM52.3636 19.6364H55.6364V22.9091H52.3636V19.6364ZM58.9091 19.6364H62.1818V22.9091H58.9091V19.6364ZM65.4545 19.6364H68.7273V22.9091H65.4545V19.6364ZM72 19.6364H75.2727V22.9091H72V19.6364ZM78.5455 19.6364H81.8182V22.9091H78.5455V19.6364ZM85.0909 19.6364H108V22.9091H85.0909V19.6364ZM32.7273 22.9091H39.2727V26.1818H32.7273V22.9091ZM49.0909 22.9091H52.3636V26.1818H49.0909V22.9091ZM68.7273 22.9091H81.8182V26.1818H68.7273V22.9091ZM3.27273 26.1818H26.1818V29.4545H3.27273V26.1818ZM42.5455 26.1818H49.0909V29.4545H42.5455V26.1818ZM55.6364 26.1818H58.9091V29.4545H55.6364V26.1818ZM62.1818 26.1818H65.4545V29.4545H62.1818V26.1818ZM72 26.1818H75.2727V29.4545H72V26.1818ZM78.5455 26.1818H81.8182V29.4545H78.5455V26.1818ZM88.3636 26.1818H94.9091V29.4545H88.3636V26.1818ZM104.727 26.1818H108V29.4545H104.727V26.1818ZM0 29.4545H3.27273V32.7273H0V29.4545ZM9.81818 29.4545H13.0909V32.7273H9.81818V29.4545ZM16.3636 29.4545H19.6364V32.7273H16.3636V29.4545ZM26.1818 29.4545H29.4545V32.7273H26.1818V29.4545ZM39.2727 29.4545H49.0909V32.7273H39.2727V29.4545ZM52.3636 29.4545H72V32.7273H52.3636V29.4545ZM75.2727 29.4545H81.8182V32.7273H75.2727V29.4545ZM85.0909 29.4545H91.6364V32.7273H85.0909V29.4545ZM94.9091 29.4545H108V32.7273H94.9091V29.4545ZM3.27273 32.7273H6.54545V36H3.27273V32.7273ZM9.81818 32.7273H13.0909V36H9.81818V32.7273ZM16.3636 32.7273H22.9091V36H16.3636V32.7273ZM36 32.7273H39.2727V36H36V32.7273ZM42.5455 32.7273H45.8182V36H42.5455V32.7273ZM49.0909 32.7273H52.3636V36H49.0909V32.7273ZM55.6364 32.7273H58.9091V36H55.6364V32.7273ZM68.7273 32.7273H72V36H68.7273V32.7273ZM91.6364 32.7273H94.9091V36H91.6364V32.7273ZM98.1818 32.7273H104.727V36H98.1818V32.7273ZM0 36H19.6364V39.2727H0V36ZM29.4545 36H32.7273V39.2727H29.4545V36ZM36 36H42.5455V39.2727H36V36ZM49.0909 36H52.3636V39.2727H49.0909V36ZM55.6364 36H75.2727V39.2727H55.6364V36ZM78.5455 36H85.0909V39.2727H78.5455V36ZM91.6364 36H108V39.2727H91.6364V36ZM6.54545 39.2727H9.81818V42.5455H6.54545V39.2727ZM16.3636 39.2727H22.9091V42.5455H16.3636V39.2727ZM36 39.2727H45.8182V42.5455H36V39.2727ZM49.0909 39.2727H55.6364V42.5455H49.0909V39.2727ZM62.1818 39.2727H65.4545V42.5455H62.1818V39.2727ZM72 39.2727H78.5455V42.5455H72V39.2727ZM81.8182 39.2727H85.0909V42.5455H81.8182V39.2727ZM88.3636 39.2727H98.1818V42.5455H88.3636V39.2727ZM0 42.5455H6.54545V45.8182H0V42.5455ZM9.81818 42.5455H13.0909V45.8182H9.81818V42.5455ZM22.9091 42.5455H32.7273V45.8182H22.9091V42.5455ZM39.2727 42.5455H42.5455V45.8182H39.2727V42.5455ZM49.0909 42.5455H68.7273V45.8182H49.0909V42.5455ZM75.2727 42.5455H78.5455V45.8182H75.2727V42.5455ZM81.8182 42.5455H88.3636V45.8182H81.8182V42.5455ZM94.9091 42.5455H108V45.8182H94.9091V42.5455ZM0 45.8182H6.54545V49.0909H0V45.8182ZM19.6364 45.8182H22.9091V49.0909H19.6364V45.8182ZM26.1818 45.8182H36V49.0909H26.1818V45.8182ZM42.5455 45.8182H45.8182V49.0909H42.5455V45.8182ZM72 45.8182H75.2727V49.0909H72V45.8182ZM81.8182 45.8182H88.3636V49.0909H81.8182V45.8182ZM91.6364 45.8182H94.9091V49.0909H91.6364V45.8182ZM98.1818 45.8182H104.727V49.0909H98.1818V45.8182ZM3.27273 49.0909H6.54545V52.3636H3.27273V49.0909ZM9.81818 49.0909H13.0909V52.3636H9.81818V49.0909ZM22.9091 49.0909H26.1818V52.3636H22.9091V49.0909ZM36 49.0909H42.5455V52.3636H36V49.0909ZM45.8182 49.0909H52.3636V52.3636H45.8182V49.0909ZM55.6364 49.0909H78.5455V52.3636H55.6364V49.0909ZM81.8182 49.0909H88.3636V52.3636H81.8182V49.0909ZM91.6364 49.0909H101.455V52.3636H91.6364V49.0909ZM0 52.3636H3.27273V55.6364H0V52.3636ZM9.81818 52.3636H13.0909V55.6364H9.81818V52.3636ZM16.3636 52.3636H26.1818V55.6364H16.3636V52.3636ZM29.4545 52.3636H36V55.6364H29.4545V52.3636ZM39.2727 52.3636H49.0909V55.6364H39.2727V52.3636ZM52.3636 52.3636H55.6364V55.6364H52.3636V52.3636ZM58.9091 52.3636H62.1818V55.6364H58.9091V52.3636ZM72 52.3636H78.5455V55.6364H72V52.3636ZM81.8182 52.3636H85.0909V55.6364H81.8182V52.3636ZM88.3636 52.3636H94.9091V55.6364H88.3636V52.3636ZM104.727 52.3636H108V55.6364H104.727V52.3636ZM16.3636 55.6364H19.6364V58.9091H16.3636V55.6364ZM26.1818 55.6364H29.4545V58.9091H26.1818V55.6364ZM42.5455 55.6364H45.8182V58.9091H42.5455V55.6364ZM52.3636 55.6364H58.9091V58.9091H52.3636V55.6364ZM62.1818 55.6364H65.4545V58.9091H62.1818V55.6364ZM68.7273 55.6364H72V58.9091H68.7273V55.6364ZM75.2727 55.6364H78.5455V58.9091H75.2727V55.6364ZM81.8182 55.6364H91.6364V58.9091H81.8182V55.6364ZM94.9091 55.6364H108V58.9091H94.9091V55.6364ZM0 58.9091H3.27273V62.1818H0V58.9091ZM13.0909 58.9091H22.9091V62.1818H13.0909V58.9091ZM26.1818 58.9091H36V62.1818H26.1818V58.9091ZM39.2727 58.9091H45.8182V62.1818H39.2727V58.9091ZM49.0909 58.9091H52.3636V62.1818H49.0909V58.9091ZM65.4545 58.9091H68.7273V62.1818H65.4545V58.9091ZM88.3636 58.9091H94.9091V62.1818H88.3636V58.9091ZM98.1818 58.9091H104.727V62.1818H98.1818V58.9091ZM6.54545 62.1818H9.81818V65.4545H6.54545V62.1818ZM13.0909 62.1818H19.6364V65.4545H13.0909V62.1818ZM22.9091 62.1818H26.1818V65.4545H22.9091V62.1818ZM36 62.1818H39.2727V65.4545H36V62.1818ZM55.6364 62.1818H58.9091V65.4545H55.6364V62.1818ZM65.4545 62.1818H72V65.4545H65.4545V62.1818ZM78.5455 62.1818H81.8182V65.4545H78.5455V62.1818ZM88.3636 62.1818H108V65.4545H88.3636V62.1818ZM3.27273 65.4545H6.54545V68.7273H3.27273V65.4545ZM9.81818 65.4545H13.0909V68.7273H9.81818V65.4545ZM19.6364 65.4545H29.4545V68.7273H19.6364V65.4545ZM39.2727 65.4545H42.5455V68.7273H39.2727V65.4545ZM45.8182 65.4545H49.0909V68.7273H45.8182V65.4545ZM52.3636 65.4545H58.9091V68.7273H52.3636V65.4545ZM72 65.4545H75.2727V68.7273H72V65.4545ZM78.5455 65.4545H85.0909V68.7273H78.5455V65.4545ZM88.3636 65.4545H98.1818V68.7273H88.3636V65.4545ZM101.455 65.4545H108V68.7273H101.455V65.4545ZM0 68.7273H3.27273V72H0V68.7273ZM16.3636 68.7273H19.6364V72H16.3636V68.7273ZM22.9091 68.7273H29.4545V72H22.9091V68.7273ZM39.2727 68.7273H42.5455V72H39.2727V68.7273ZM49.0909 68.7273H52.3636V72H49.0909V68.7273ZM55.6364 68.7273H68.7273V72H55.6364V68.7273ZM75.2727 68.7273H91.6364V72H75.2727V68.7273ZM94.9091 68.7273H98.1818V72H94.9091V68.7273ZM104.727 68.7273H108V72H104.727V68.7273ZM0 72H3.27273V75.2727H0V72ZM9.81818 72H13.0909V75.2727H9.81818V72ZM19.6364 72H22.9091V75.2727H19.6364V72ZM29.4545 72H36V75.2727H29.4545V72ZM42.5455 72H45.8182V75.2727H42.5455V72ZM49.0909 72H62.1818V75.2727H49.0909V72ZM65.4545 72H68.7273V75.2727H65.4545V72ZM72 72H75.2727V75.2727H72V72ZM94.9091 72H98.1818V75.2727H94.9091V72ZM101.455 72H104.727V75.2727H101.455V72ZM0 75.2727H3.27273V78.5455H0V75.2727ZM6.54545 75.2727H9.81818V78.5455H6.54545V75.2727ZM13.0909 75.2727H19.6364V78.5455H13.0909V75.2727ZM29.4545 75.2727H39.2727V78.5455H29.4545V75.2727ZM42.5455 75.2727H45.8182V78.5455H42.5455V75.2727ZM65.4545 75.2727H81.8182V78.5455H65.4545V75.2727ZM94.9091 75.2727H104.727V78.5455H94.9091V75.2727ZM0 78.5455H3.27273V81.8182H0V78.5455ZM6.54545 78.5455H13.0909V81.8182H6.54545V78.5455ZM19.6364 78.5455H26.1818V81.8182H19.6364V78.5455ZM32.7273 78.5455H36V81.8182H32.7273V78.5455ZM42.5455 78.5455H45.8182V81.8182H42.5455V78.5455ZM49.0909 78.5455H58.9091V81.8182H49.0909V78.5455ZM62.1818 78.5455H65.4545V81.8182H62.1818V78.5455ZM72 78.5455H75.2727V81.8182H72V78.5455ZM78.5455 78.5455H98.1818V81.8182H78.5455V78.5455ZM101.455 78.5455H108V81.8182H101.455V78.5455ZM26.1818 81.8182H29.4545V85.0909H26.1818V81.8182ZM36 81.8182H39.2727V85.0909H36V81.8182ZM45.8182 81.8182H52.3636V85.0909H45.8182V81.8182ZM55.6364 81.8182H68.7273V85.0909H55.6364V81.8182ZM78.5455 81.8182H81.8182V85.0909H78.5455V81.8182ZM91.6364 81.8182H94.9091V85.0909H91.6364V81.8182ZM98.1818 81.8182H101.455V85.0909H98.1818V81.8182ZM104.727 81.8182H108V85.0909H104.727V81.8182ZM0 85.0909H22.9091V88.3636H0V85.0909ZM26.1818 85.0909H39.2727V88.3636H26.1818V85.0909ZM58.9091 85.0909H62.1818V88.3636H58.9091V85.0909ZM68.7273 85.0909H81.8182V88.3636H68.7273V85.0909ZM85.0909 85.0909H88.3636V88.3636H85.0909V85.0909ZM91.6364 85.0909H94.9091V88.3636H91.6364V85.0909ZM98.1818 85.0909H101.455V88.3636H98.1818V85.0909ZM0 88.3636H3.27273V91.6364H0V88.3636ZM19.6364 88.3636H22.9091V91.6364H19.6364V88.3636ZM26.1818 88.3636H32.7273V91.6364H26.1818V88.3636ZM36 88.3636H39.2727V91.6364H36V88.3636ZM45.8182 88.3636H52.3636V91.6364H45.8182V88.3636ZM55.6364 88.3636H58.9091V91.6364H55.6364V88.3636ZM65.4545 88.3636H72V91.6364H65.4545V88.3636ZM75.2727 88.3636H81.8182V91.6364H75.2727V88.3636ZM91.6364 88.3636H104.727V91.6364H91.6364V88.3636ZM0 91.6364H3.27273V94.9091H0V91.6364ZM6.54545 91.6364H16.3636V94.9091H6.54545V91.6364ZM19.6364 91.6364H22.9091V94.9091H19.6364V91.6364ZM26.1818 91.6364H29.4545V94.9091H26.1818V91.6364ZM32.7273 91.6364H36V94.9091H32.7273V91.6364ZM39.2727 91.6364H55.6364V94.9091H39.2727V91.6364ZM62.1818 91.6364H65.4545V94.9091H62.1818V91.6364ZM72 91.6364H75.2727V94.9091H72V91.6364ZM78.5455 91.6364H98.1818V94.9091H78.5455V91.6364ZM101.455 91.6364H108V94.9091H101.455V91.6364ZM0 94.9091H3.27273V98.1818H0V94.9091ZM6.54545 94.9091H16.3636V98.1818H6.54545V94.9091ZM19.6364 94.9091H22.9091V98.1818H19.6364V94.9091ZM26.1818 94.9091H36V98.1818H26.1818V94.9091ZM49.0909 94.9091H65.4545V98.1818H49.0909V94.9091ZM68.7273 94.9091H72V98.1818H68.7273V94.9091ZM78.5455 94.9091H85.0909V98.1818H78.5455V94.9091ZM91.6364 94.9091H94.9091V98.1818H91.6364V94.9091ZM98.1818 94.9091H101.455V98.1818H98.1818V94.9091ZM104.727 94.9091H108V98.1818H104.727V94.9091ZM0 98.1818H3.27273V101.455H0V98.1818ZM6.54545 98.1818H16.3636V101.455H6.54545V98.1818ZM19.6364 98.1818H22.9091V101.455H19.6364V98.1818ZM26.1818 98.1818H32.7273V101.455H26.1818V98.1818ZM39.2727 98.1818H45.8182V101.455H39.2727V98.1818ZM52.3636 98.1818H55.6364V101.455H52.3636V98.1818ZM65.4545 98.1818H68.7273V101.455H65.4545V98.1818ZM72 98.1818H78.5455V101.455H72V98.1818ZM85.0909 98.1818H91.6364V101.455H85.0909V98.1818ZM0 101.455H3.27273V104.727H0V101.455ZM19.6364 101.455H22.9091V104.727H19.6364V101.455ZM26.1818 101.455H36V104.727H26.1818V101.455ZM42.5455 101.455H45.8182V104.727H42.5455V101.455ZM49.0909 101.455H58.9091V104.727H49.0909V101.455ZM65.4545 101.455H78.5455V104.727H65.4545V101.455ZM91.6364 101.455H101.455V104.727H91.6364V101.455ZM0 104.727H22.9091V108H0V104.727ZM29.4545 104.727H42.5455V108H29.4545V104.727ZM49.0909 104.727H52.3636V108H49.0909V104.727ZM55.6364 104.727H62.1818V108H55.6364V104.727ZM72 104.727H81.8182V108H72V104.727ZM88.3636 104.727H91.6364V108H88.3636V104.727ZM101.455 104.727H104.727V108H101.455V104.727Z" fill="#0D0D14"/>
</g>
<defs>
<clipPath id="clip0_3925_99547">
<rect width="108" height="108" fill="white"/>
</clipPath>
</defs>
</svg>
