<svg width="218" height="170" viewBox="0 0 218 170" fill="none" xmlns="http://www.w3.org/2000/svg">
<g clip-path="url(#clip0_3373_121471)">
<g clip-path="url(#clip1_3373_121471)">
<path d="M15.6094 -37.627V159.947" stroke="#201F24" stroke-width="0.593315" stroke-dasharray="2.37 2.37"/>
<path d="M43.4961 -37.627V159.947" stroke="#201F24" stroke-width="0.593315" stroke-dasharray="2.37 2.37"/>
<path d="M71.3809 -37.627V159.947" stroke="#201F24" stroke-width="0.593315" stroke-dasharray="2.37 2.37"/>
<path d="M99.2676 -37.627V159.947" stroke="#201F24" stroke-width="0.593315" stroke-dasharray="2.37 2.37"/>
<path d="M127.152 -37.627V159.947" stroke="#201F24" stroke-width="0.593315" stroke-dasharray="2.37 2.37"/>
<path d="M155.039 -37.627V159.947" stroke="#201F24" stroke-width="0.593315" stroke-dasharray="2.37 2.37"/>
<path d="M182.924 -37.627V159.947" stroke="#201F24" stroke-width="0.593315" stroke-dasharray="2.37 2.37"/>
<path d="M210.811 -37.627V159.947" stroke="#201F24" stroke-width="0.593315" stroke-dasharray="2.37 2.37"/>
<path d="M11.1602 164.098L214.667 164.098" stroke="#1F1E22" stroke-width="0.593315"/>
<path d="M11.1602 164.098L11.1601 -37.6294" stroke="#1F1E22" stroke-width="0.593315"/>
<path d="M3.25552 14.0859L4.14253 12.5552C3.93487 12.6165 3.73017 12.6274 3.52845 12.5878C3.3287 12.5463 3.14675 12.4652 2.9826 12.3446C2.81845 12.2219 2.68693 12.0677 2.58804 11.8818C2.48916 11.6959 2.43971 11.4892 2.43971 11.2618C2.43971 11.0679 2.4763 10.886 2.54948 10.7159C2.62265 10.5458 2.72352 10.3965 2.85207 10.268C2.98062 10.1394 3.12895 10.0385 3.29705 9.96537C3.46714 9.89219 3.64909 9.8556 3.8429 9.8556C4.10001 9.8556 4.33338 9.91889 4.54301 10.0455C4.75463 10.172 4.92372 10.3421 5.0503 10.5557C5.17885 10.7673 5.24313 11.0027 5.24313 11.2618C5.24313 11.4022 5.22533 11.5268 5.18973 11.6355C5.15611 11.7423 5.10469 11.859 5.03547 11.9856L3.83104 14.0859H3.25552ZM3.83697 12.1666C4.01299 12.1666 4.16923 12.125 4.30569 12.042C4.44413 11.9569 4.55191 11.8452 4.62905 11.7067C4.70815 11.5683 4.74771 11.42 4.74771 11.2618C4.74771 11.0897 4.70618 10.9354 4.62311 10.799C4.54005 10.6605 4.4293 10.5518 4.29086 10.4726C4.15242 10.3916 4.0031 10.351 3.8429 10.351C3.66689 10.351 3.50966 10.3935 3.37122 10.4786C3.23476 10.5636 3.12697 10.6764 3.04786 10.8168C2.97073 10.9552 2.93216 11.1035 2.93216 11.2618C2.93216 11.4279 2.97172 11.5802 3.05083 11.7186C3.13191 11.8551 3.24069 11.9638 3.37715 12.0449C3.51559 12.126 3.66886 12.1666 3.83697 12.1666ZM7.19648 14.1631C6.94926 14.1631 6.72776 14.1077 6.53196 13.9969C6.33617 13.8842 6.16806 13.729 6.02765 13.5312C5.88723 13.3334 5.78043 13.105 5.70726 12.8459C5.63408 12.5849 5.59749 12.306 5.59749 12.0093C5.59749 11.7127 5.63408 11.4338 5.70726 11.1728C5.78043 10.9117 5.88723 10.6833 6.02765 10.4875C6.16806 10.2897 6.33617 10.1354 6.53196 10.0247C6.72776 9.91197 6.94926 9.8556 7.19648 9.8556C7.44171 9.8556 7.66223 9.91197 7.85802 10.0247C8.05579 10.1354 8.22291 10.2897 8.35937 10.4875C8.49781 10.6833 8.60362 10.9117 8.6768 11.1728C8.75195 11.4338 8.78953 11.7127 8.78953 12.0093C8.78953 12.306 8.75195 12.5849 8.6768 12.8459C8.60362 13.105 8.49781 13.3334 8.35937 13.5312C8.22291 13.729 8.05579 13.8842 7.85802 13.9969C7.66223 14.1077 7.44171 14.1631 7.19648 14.1631ZM7.19648 13.6647C7.44369 13.6647 7.65036 13.5885 7.81649 13.4363C7.9846 13.282 8.11018 13.0793 8.19325 12.8281C8.27631 12.5769 8.31784 12.304 8.31784 12.0093C8.31784 11.6988 8.27433 11.419 8.18731 11.1698C8.10227 10.9186 7.9757 10.7199 7.80759 10.5735C7.64146 10.4272 7.43776 10.354 7.19648 10.354C7.00662 10.354 6.84049 10.3985 6.69809 10.4875C6.55767 10.5765 6.44099 10.6981 6.34804 10.8524C6.25508 11.0066 6.18487 11.1836 6.13741 11.3834C6.09192 11.5812 6.06918 11.7898 6.06918 12.0093C6.06918 12.304 6.1117 12.5779 6.19674 12.8311C6.28178 13.0822 6.40737 13.284 6.5735 13.4363C6.7416 13.5885 6.94926 13.6647 7.19648 13.6647Z" fill="#626069"/>
<path d="M3.83697 51.8955C3.58976 51.8955 3.3643 51.8391 3.16059 51.7264C2.95886 51.6137 2.79768 51.4634 2.67704 51.2755C2.55838 51.0856 2.49904 50.876 2.49904 50.6466C2.49904 50.433 2.55541 50.2372 2.66814 50.0592C2.78087 49.8792 2.92821 49.7368 3.11016 49.632C2.96183 49.5371 2.83921 49.4115 2.7423 49.2552C2.64737 49.097 2.59991 48.9259 2.59991 48.742C2.59991 48.5284 2.65528 48.3346 2.76604 48.1606C2.87877 47.9865 3.02808 47.8481 3.21399 47.7453C3.40187 47.6404 3.60953 47.588 3.83697 47.588C4.06441 47.588 4.27108 47.6404 4.45698 47.7453C4.64487 47.8481 4.79418 47.9865 4.90494 48.1606C5.01767 48.3346 5.07403 48.5284 5.07403 48.742C5.07403 48.9259 5.02657 49.097 4.93164 49.2552C4.83671 49.4115 4.7131 49.5371 4.56081 49.632C4.7487 49.7368 4.89801 49.8792 5.00877 50.0592C5.1215 50.2372 5.17786 50.433 5.17786 50.6466C5.17786 50.874 5.11754 51.0826 4.9969 51.2725C4.87626 51.4624 4.71409 51.6137 4.51038 51.7264C4.30865 51.8391 4.08418 51.8955 3.83697 51.8955ZM3.83697 51.3971C3.98728 51.3971 4.12275 51.3635 4.24339 51.2962C4.36601 51.229 4.46391 51.139 4.53708 51.0263C4.61026 50.9116 4.64684 50.785 4.64684 50.6466C4.64684 50.5061 4.61026 50.3796 4.53708 50.2668C4.46391 50.1541 4.36601 50.0641 4.24339 49.9969C4.12275 49.9296 3.98728 49.896 3.83697 49.896C3.68864 49.896 3.55317 49.9296 3.43055 49.9969C3.30793 50.0641 3.21003 50.1541 3.13686 50.2668C3.06368 50.3796 3.02709 50.5061 3.02709 50.6466C3.02709 50.785 3.06368 50.9116 3.13686 51.0263C3.21003 51.139 3.30793 51.229 3.43055 51.2962C3.55317 51.3635 3.68864 51.3971 3.83697 51.3971ZM3.83697 49.3976C3.9675 49.3976 4.08616 49.368 4.19296 49.3086C4.29976 49.2493 4.3848 49.1702 4.44808 49.0713C4.51335 48.9724 4.54598 48.8627 4.54598 48.742C4.54598 48.6194 4.51335 48.5096 4.44808 48.4127C4.3848 48.3138 4.29976 48.2347 4.19296 48.1754C4.08616 48.1161 3.9675 48.0864 3.83697 48.0864C3.70644 48.0864 3.58778 48.1161 3.48098 48.1754C3.37418 48.2347 3.28815 48.3138 3.22289 48.4127C3.1596 48.5096 3.12796 48.6194 3.12796 48.742C3.12796 48.8627 3.1596 48.9724 3.22289 49.0713C3.28815 49.1702 3.37418 49.2493 3.48098 49.3086C3.58778 49.368 3.70644 49.3976 3.83697 49.3976ZM7.19068 51.8955C6.94347 51.8955 6.72196 51.8401 6.52617 51.7294C6.33038 51.6166 6.16227 51.4614 6.02185 51.2636C5.88143 51.0658 5.77464 50.8374 5.70146 50.5783C5.62829 50.3173 5.5917 50.0384 5.5917 49.7418C5.5917 49.4451 5.62829 49.1662 5.70146 48.9052C5.77464 48.6441 5.88143 48.4157 6.02185 48.2199C6.16227 48.0221 6.33038 47.8679 6.52617 47.7571C6.72196 47.6444 6.94347 47.588 7.19068 47.588C7.43592 47.588 7.65643 47.6444 7.85223 47.7571C8.05 47.8679 8.21712 48.0221 8.35358 48.2199C8.49202 48.4157 8.59783 48.6441 8.671 48.9052C8.74616 49.1662 8.78373 49.4451 8.78373 49.7418C8.78373 50.0384 8.74616 50.3173 8.671 50.5783C8.59783 50.8374 8.49202 51.0658 8.35358 51.2636C8.21712 51.4614 8.05 51.6166 7.85223 51.7294C7.65643 51.8401 7.43592 51.8955 7.19068 51.8955ZM7.19068 51.3971C7.4379 51.3971 7.64457 51.321 7.8107 51.1687C7.9788 51.0144 8.10439 50.8117 8.18745 50.5605C8.27052 50.3094 8.31205 50.0364 8.31205 49.7418C8.31205 49.4313 8.26854 49.1514 8.18152 48.9022C8.09648 48.651 7.9699 48.4523 7.8018 48.3059C7.63567 48.1596 7.43196 48.0864 7.19068 48.0864C7.00082 48.0864 6.83469 48.1309 6.6923 48.2199C6.55188 48.3089 6.43519 48.4305 6.34224 48.5848C6.24929 48.7391 6.17908 48.9161 6.13161 49.1158C6.08613 49.3136 6.06338 49.5222 6.06338 49.7418C6.06338 50.0364 6.1059 50.3104 6.19095 50.5635C6.27599 50.8147 6.40157 51.0164 6.5677 51.1687C6.73581 51.321 6.94347 51.3971 7.19068 51.3971Z" fill="#626069"/>
<path d="M2.65627 89.5508L4.76254 85.896H2.38038V85.3976H5.33806V85.896L3.22586 89.5508H2.65627ZM7.23124 89.6279C6.98403 89.6279 6.76252 89.5725 6.56673 89.4618C6.37093 89.3491 6.20283 89.1938 6.06241 88.996C5.92199 88.7983 5.8152 88.5698 5.74202 88.3108C5.66884 88.0497 5.63226 87.7708 5.63226 87.4742C5.63226 87.1775 5.66884 86.8987 5.74202 86.6376C5.8152 86.3765 5.92199 86.1481 6.06241 85.9523C6.20283 85.7546 6.37093 85.6003 6.56673 85.4895C6.76252 85.3768 6.98403 85.3204 7.23124 85.3204C7.47648 85.3204 7.69699 85.3768 7.89279 85.4895C8.09056 85.6003 8.25768 85.7546 8.39414 85.9523C8.53258 86.1481 8.63839 86.3765 8.71156 86.6376C8.78671 86.8987 8.82429 87.1775 8.82429 87.4742C8.82429 87.7708 8.78671 88.0497 8.71156 88.3108C8.63839 88.5698 8.53258 88.7983 8.39414 88.996C8.25768 89.1938 8.09056 89.3491 7.89279 89.4618C7.69699 89.5725 7.47648 89.6279 7.23124 89.6279ZM7.23124 89.1295C7.47846 89.1295 7.68513 89.0534 7.85125 88.9011C8.01936 88.7468 8.14495 88.5441 8.22801 88.293C8.31107 88.0418 8.35261 87.7689 8.35261 87.4742C8.35261 87.1637 8.3091 86.8838 8.22208 86.6346C8.13703 86.3835 8.01046 86.1847 7.84235 86.0384C7.67623 85.892 7.47252 85.8188 7.23124 85.8188C7.04138 85.8188 6.87525 85.8633 6.73286 85.9523C6.59244 86.0413 6.47575 86.163 6.3828 86.3172C6.28985 86.4715 6.21964 86.6485 6.17217 86.8482C6.12669 87.046 6.10394 87.2547 6.10394 87.4742C6.10394 87.7689 6.14646 88.0428 6.23151 88.2959C6.31655 88.5471 6.44213 88.7488 6.60826 88.9011C6.77637 89.0534 6.98403 89.1295 7.23124 89.1295Z" fill="#626069"/>
<path d="M3.84884 127.36C3.5858 127.36 3.34551 127.295 3.12796 127.165C2.91041 127.034 2.73637 126.86 2.60584 126.642C2.47531 126.423 2.41005 126.181 2.41005 125.916C2.41005 125.767 2.42686 125.638 2.46048 125.527C2.49608 125.416 2.54849 125.297 2.61771 125.168L3.79247 123.13H4.37095L3.53141 124.587C3.7015 124.533 3.87059 124.514 4.0387 124.53C4.2068 124.546 4.36601 124.592 4.51632 124.667C4.6686 124.742 4.80308 124.841 4.91977 124.963C5.03645 125.086 5.12842 125.228 5.19566 125.391C5.2629 125.551 5.29652 125.726 5.29652 125.916C5.29652 126.115 5.25796 126.302 5.18083 126.476C5.10567 126.65 5.00184 126.804 4.86934 126.936C4.73881 127.069 4.58554 127.172 4.40952 127.248C4.2335 127.323 4.04661 127.36 3.84884 127.36ZM3.84884 126.862C4.03079 126.862 4.19296 126.817 4.33535 126.728C4.47973 126.639 4.59246 126.523 4.67354 126.378C4.75661 126.234 4.79814 126.08 4.79814 125.916C4.79814 125.744 4.75562 125.586 4.67058 125.444C4.58751 125.302 4.47379 125.188 4.32942 125.103C4.18703 125.016 4.02881 124.972 3.85477 124.972C3.67282 124.972 3.51065 125.017 3.36825 125.106C3.22586 125.195 3.11313 125.31 3.03006 125.453C2.94898 125.595 2.90843 125.749 2.90843 125.916C2.90843 126.096 2.95194 126.257 3.03896 126.399C3.12598 126.542 3.24069 126.654 3.38308 126.737C3.52746 126.82 3.68271 126.862 3.84884 126.862ZM7.24862 127.36C7.00141 127.36 6.7799 127.305 6.58411 127.194C6.38832 127.081 6.22021 126.926 6.07979 126.728C5.93937 126.531 5.83258 126.302 5.7594 126.043C5.68623 125.782 5.64964 125.503 5.64964 125.207C5.64964 124.91 5.68623 124.631 5.7594 124.37C5.83258 124.109 5.93937 123.881 6.07979 123.685C6.22021 123.487 6.38832 123.333 6.58411 123.222C6.7799 123.109 7.00141 123.053 7.24862 123.053C7.49386 123.053 7.71437 123.109 7.91017 123.222C8.10794 123.333 8.27506 123.487 8.41152 123.685C8.54996 123.881 8.65577 124.109 8.72894 124.37C8.8041 124.631 8.84167 124.91 8.84167 125.207C8.84167 125.503 8.8041 125.782 8.72894 126.043C8.65577 126.302 8.54996 126.531 8.41152 126.728C8.27506 126.926 8.10794 127.081 7.91017 127.194C7.71437 127.305 7.49386 127.36 7.24862 127.36ZM7.24862 126.862C7.49584 126.862 7.70251 126.786 7.86864 126.634C8.03674 126.479 8.16233 126.277 8.24539 126.025C8.32846 125.774 8.36999 125.501 8.36999 125.207C8.36999 124.896 8.32648 124.616 8.23946 124.367C8.15442 124.116 8.02784 123.917 7.85974 123.771C7.69361 123.624 7.4899 123.551 7.24862 123.551C7.05876 123.551 6.89263 123.596 6.75024 123.685C6.60982 123.774 6.49314 123.895 6.40018 124.05C6.30723 124.204 6.23702 124.381 6.18956 124.581C6.14407 124.778 6.12132 124.987 6.12132 125.207C6.12132 125.501 6.16385 125.775 6.24889 126.028C6.33393 126.28 6.45951 126.481 6.62564 126.634C6.79375 126.786 7.00141 126.862 7.24862 126.862Z" fill="#626069"/>
<path d="M3.84884 165.093C3.59173 165.093 3.35836 165.03 3.14872 164.906C2.93909 164.781 2.77296 164.615 2.65034 164.407C2.5297 164.198 2.46938 163.967 2.46938 163.716H2.96776C2.96776 163.876 3.00732 164.024 3.08643 164.158C3.16554 164.291 3.27134 164.397 3.40385 164.476C3.53833 164.555 3.68666 164.594 3.84884 164.594C4.00903 164.594 4.15538 164.555 4.28789 164.476C4.4204 164.397 4.5262 164.291 4.60531 164.158C4.68442 164.024 4.72398 163.876 4.72398 163.716C4.72398 163.556 4.6864 163.409 4.61125 163.274C4.53807 163.14 4.43028 163.033 4.28789 162.954C4.14549 162.873 3.97244 162.832 3.76874 162.832H2.74527L3.14872 160.862H5.11853V161.361H3.55218L3.35935 162.334L3.7895 162.337C4.07232 162.343 4.32052 162.406 4.53411 162.527C4.74969 162.645 4.91779 162.808 5.03843 163.013C5.16105 163.217 5.22236 163.451 5.22236 163.716C5.22236 163.904 5.18676 164.082 5.11556 164.25C5.04437 164.416 4.94548 164.563 4.81891 164.689C4.69233 164.816 4.54598 164.915 4.37985 164.986C4.2157 165.057 4.0387 165.093 3.84884 165.093ZM7.1733 165.093C6.92609 165.093 6.70458 165.037 6.50879 164.927C6.31299 164.814 6.14489 164.659 6.00447 164.461C5.86405 164.263 5.75725 164.035 5.68408 163.776C5.6109 163.515 5.57432 163.236 5.57432 162.939C5.57432 162.642 5.6109 162.364 5.68408 162.102C5.75725 161.841 5.86405 161.613 6.00447 161.417C6.14489 161.219 6.31299 161.065 6.50879 160.954C6.70458 160.842 6.92609 160.785 7.1733 160.785C7.41854 160.785 7.63905 160.842 7.83485 160.954C8.03262 161.065 8.19973 161.219 8.3362 161.417C8.47464 161.613 8.58044 161.841 8.65362 162.102C8.72877 162.364 8.76635 162.642 8.76635 162.939C8.76635 163.236 8.72877 163.515 8.65362 163.776C8.58044 164.035 8.47464 164.263 8.3362 164.461C8.19973 164.659 8.03262 164.814 7.83485 164.927C7.63905 165.037 7.41854 165.093 7.1733 165.093ZM7.1733 164.594C7.42051 164.594 7.62719 164.518 7.79331 164.366C7.96142 164.212 8.087 164.009 8.17007 163.758C8.25313 163.507 8.29466 163.234 8.29466 162.939C8.29466 162.629 8.25115 162.349 8.16414 162.099C8.07909 161.848 7.95252 161.65 7.78441 161.503C7.61829 161.357 7.41458 161.284 7.1733 161.284C6.98344 161.284 6.81731 161.328 6.67492 161.417C6.5345 161.506 6.41781 161.628 6.32486 161.782C6.23191 161.936 6.1617 162.113 6.11423 162.313C6.06875 162.511 6.046 162.719 6.046 162.939C6.046 163.234 6.08852 163.508 6.17356 163.761C6.25861 164.012 6.38419 164.214 6.55032 164.366C6.71842 164.518 6.92609 164.594 7.1733 164.594Z" fill="#626069"/>
</g>
<path d="M11.002 164C115.521 149.263 181.787 78.5833 214.002 0V164H11.002Z" fill="url(#paint0_linear_3373_121471)"/>
<path d="M212.656 4.2309C212.519 3.85986 212.114 3.67902 211.751 3.827L205.827 6.23835C205.463 6.38632 205.279 6.80707 205.415 7.17811C205.551 7.54916 205.957 7.72999 206.32 7.58201L211.586 5.43859L213.56 10.8133C213.696 11.1843 214.102 11.3651 214.465 11.2172C214.829 11.0692 215.013 10.6485 214.877 10.2774L212.656 4.2309ZM12.7669 163.722L12.8682 164.435C104.853 148.679 171.876 97.879 212.637 4.78444L211.997 4.49883L211.357 4.21322C170.797 96.8487 104.184 147.332 12.6655 163.008L12.7669 163.722Z" fill="url(#paint1_linear_3373_121471)" fill-opacity="0.75"/>
</g>
<defs>
<linearGradient id="paint0_linear_3373_121471" x1="113.896" y1="-1.13364" x2="113.425" y2="181.283" gradientUnits="userSpaceOnUse">
<stop stop-color="#6930FF" stop-opacity="0.44"/>
<stop offset="0.501505" stop-color="#662BFF" stop-opacity="0.21"/>
<stop offset="1" stop-color="#6124FF" stop-opacity="0"/>
</linearGradient>
<linearGradient id="paint1_linear_3373_121471" x1="236.111" y1="-14.4701" x2="15.9304" y2="160.771" gradientUnits="userSpaceOnUse">
<stop stop-color="#A888FC"/>
<stop offset="1" stop-color="#645196" stop-opacity="0"/>
</linearGradient>
<clipPath id="clip0_3373_121471">
<rect width="218" height="170" fill="white" transform="matrix(-1 0 0 1 218 0)"/>
</clipPath>
<clipPath id="clip1_3373_121471">
<rect width="213" height="172" fill="white" transform="translate(2.26172 -6.77539)"/>
</clipPath>
</defs>
</svg>
