<svg width="57" height="28" viewBox="0 0 57 28" fill="none" xmlns="http://www.w3.org/2000/svg">
<path d="M2.29504 5.86523H4.98514V18.4652H2.29504V13.5652H0.714844V10.595H2.29504V5.86523Z" fill="url(#paint0_linear_4042_32921)"/>
<mask id="mask0_4042_32921" style="mask-type:luminance" maskUnits="userSpaceOnUse" x="0" y="5" width="5" height="14">
<path d="M2.29504 5.86523H4.98514V18.4652H2.29504V13.5652H0.714844V10.595H2.29504V5.86523Z" fill="white"/>
</mask>
<g mask="url(#mask0_4042_32921)">
<path d="M5.15352 5.86523H0.638672V6.24361H5.15352V5.86523Z" fill="white" fill-opacity="0.35"/>
</g>
<mask id="mask1_4042_32921" style="mask-type:luminance" maskUnits="userSpaceOnUse" x="0" y="5" width="5" height="14">
<path d="M2.29504 5.86523H4.98514V18.4652H2.29504V13.5652H0.714844V10.595H2.29504V5.86523Z" fill="white"/>
</mask>
<g mask="url(#mask1_4042_32921)">
<path d="M2.51986 10.5957H0.638672V10.9741H2.51986V10.5957Z" fill="white" fill-opacity="0.25"/>
</g>
<path d="M11.0984 1.32422H45.4301L43.9733 4.19989H16.4314L17.7767 6.43233H31.0202L26.242 9.27016H15.8955L11.0984 1.32422ZM31.0202 6.43233L26.242 9.27016L23.2321 15.608V21.6621L31.0202 6.43233ZM5.75586 4.19989H8.61526L8.57764 10.6702L20.3163 10.6891L23.2321 15.608V21.6621C21.9529 19.2215 19.846 16.0621 18.5291 13.6404H8.61526L8.63408 19.1648H5.75586V4.19989Z" fill="url(#paint1_linear_4042_32921)"/>
<mask id="mask2_4042_32921" style="mask-type:luminance" maskUnits="userSpaceOnUse" x="11" y="1" width="35" height="9">
<path d="M11.0996 1.32422H45.4313L43.9745 4.19989H16.4326L17.7778 6.43233H31.0214L26.2432 9.27016H15.8966L11.0996 1.32422Z" fill="white"/>
</mask>
<g mask="url(#mask2_4042_32921)">
<path d="M45.5254 1.32422H11.0996V1.7026H45.5254V1.32422Z" fill="white" fill-opacity="0.4"/>
</g>
<mask id="mask3_4042_32921" style="mask-type:luminance" maskUnits="userSpaceOnUse" x="11" y="1" width="35" height="9">
<path d="M11.0996 1.32422H45.4313L43.9745 4.19989H16.4326L17.7778 6.43233H31.0214L26.2432 9.27016H15.8966L11.0996 1.32422Z" fill="white"/>
</mask>
<g mask="url(#mask3_4042_32921)">
<path d="M44.0207 4.19922H16.3672V4.5776H44.0207V4.19922Z" fill="white" fill-opacity="0.22"/>
</g>
<mask id="mask4_4042_32921" style="mask-type:luminance" maskUnits="userSpaceOnUse" x="11" y="1" width="35" height="9">
<path d="M11.0996 1.32422H45.4313L43.9745 4.19989H16.4326L17.7778 6.43233H31.0214L26.2432 9.27016H15.8966L11.0996 1.32422Z" fill="white"/>
</mask>
<g mask="url(#mask4_4042_32921)">
<path d="M31.04 6.43164H17.6836V6.81002H31.04V6.43164Z" fill="white" fill-opacity="0.2"/>
</g>
<mask id="mask5_4042_32921" style="mask-type:luminance" maskUnits="userSpaceOnUse" x="5" y="4" width="19" height="18">
<path d="M5.75586 4.19922H8.61527L8.57764 10.6695L20.3163 10.6884L23.2321 15.6073V21.6614C21.9529 19.2208 19.846 16.0614 18.5291 13.6398H8.61527L8.63408 19.1641H5.75586V4.19922Z" fill="white"/>
</mask>
<g mask="url(#mask5_4042_32921)">
<path d="M8.65248 4.19922H5.64258V4.5776H8.65248V4.19922Z" fill="white" fill-opacity="0.3"/>
</g>
<mask id="mask6_4042_32921" style="mask-type:luminance" maskUnits="userSpaceOnUse" x="5" y="4" width="19" height="18">
<path d="M5.75586 4.19922H8.61527L8.57764 10.6695L20.3163 10.6884L23.2321 15.6073V21.6614C21.9529 19.2208 19.846 16.0614 18.5291 13.6398H8.61527L8.63408 19.1641H5.75586V4.19922Z" fill="white"/>
</mask>
<g mask="url(#mask6_4042_32921)">
<path d="M20.5044 10.6875H8.46484V11.0659H20.5044V10.6875Z" fill="white" fill-opacity="0.2"/>
</g>
<path d="M47.7825 4.24023H50.7924V19.3376H47.8578L47.839 16.4644V13.624H33.7677L26.7132 27.433L24.832 24.2168C25.8102 22.1735 29.535 15.0429 30.4756 13.1321L33.8994 6.41591H42.835L41.3865 9.21591H36.0251L35.3353 10.5781H47.7825V4.24023Z" fill="url(#paint2_linear_4042_32921)"/>
<mask id="mask7_4042_32921" style="mask-type:luminance" maskUnits="userSpaceOnUse" x="24" y="4" width="27" height="24">
<path d="M47.7825 4.24023H50.7924V19.3376H47.8578L47.839 16.4644V13.624H33.7677L26.7132 27.433L24.832 24.2168C25.8102 22.1735 29.535 15.0429 30.4756 13.1321L33.8994 6.41591H42.835L41.3865 9.21591H36.0251L35.3353 10.5781H47.7825V4.24023Z" fill="white"/>
</mask>
<g mask="url(#mask7_4042_32921)">
<path d="M47.9702 6.41406H33.8613V6.79244H47.9702V6.41406Z" fill="white" fill-opacity="0.4"/>
</g>
<mask id="mask8_4042_32921" style="mask-type:luminance" maskUnits="userSpaceOnUse" x="24" y="4" width="27" height="24">
<path d="M47.7825 4.24023H50.7924V19.3376H47.8578L47.839 16.4644V13.624H33.7677L26.7132 27.433L24.832 24.2168C25.8102 22.1735 29.535 15.0429 30.4756 13.1321L33.8994 6.41591H42.835L41.3865 9.21591H36.0251L35.3353 10.5781H47.7825V4.24023Z" fill="white"/>
</mask>
<g mask="url(#mask8_4042_32921)">
<path d="M41.3871 9.21484H35.9316V9.59322H41.3871V9.21484Z" fill="white" fill-opacity="0.22"/>
</g>
<mask id="mask9_4042_32921" style="mask-type:luminance" maskUnits="userSpaceOnUse" x="24" y="4" width="27" height="24">
<path d="M47.7825 4.24023H50.7924V19.3376H47.8578L47.839 16.4644V13.624H33.7677L26.7132 27.433L24.832 24.2168C25.8102 22.1735 29.535 15.0429 30.4756 13.1321L33.8994 6.41591H42.835L41.3865 9.21591H36.0251L35.3353 10.5781H47.7825V4.24023Z" fill="white"/>
</mask>
<g mask="url(#mask9_4042_32921)">
<path d="M47.7817 10.5762H35.1777V10.9546H47.7817V10.5762Z" fill="white" fill-opacity="0.2"/>
</g>
<mask id="mask10_4042_32921" style="mask-type:luminance" maskUnits="userSpaceOnUse" x="24" y="4" width="27" height="24">
<path d="M47.7825 4.24023H50.7924V19.3376H47.8578L47.839 16.4644V13.624H33.7677L26.7132 27.433L24.832 24.2168C25.8102 22.1735 29.535 15.0429 30.4756 13.1321L33.8994 6.41591H42.835L41.3865 9.21591H36.0251L35.3353 10.5781H47.7825V4.24023Z" fill="white"/>
</mask>
<g mask="url(#mask10_4042_32921)">
<path d="M50.7931 4.23828H47.7832V4.61666H50.7931V4.23828Z" fill="white" fill-opacity="0.35"/>
</g>
<path d="M51.5625 5.48633H54.5724V10.6701H56.1313V13.6593H54.5724V18.4836H51.5625V5.48633Z" fill="#AD9DDB"/>
<mask id="mask11_4042_32921" style="mask-type:luminance" maskUnits="userSpaceOnUse" x="51" y="5" width="6" height="14">
<path d="M51.5625 5.48633H54.5724V10.6701H56.1313V13.6593H54.5724V18.4836H51.5625V5.48633Z" fill="white"/>
</mask>
<g mask="url(#mask11_4042_32921)">
<path d="M54.741 5.48633H51.543V5.86471H54.741V5.48633Z" fill="white" fill-opacity="0.35"/>
</g>
<mask id="mask12_4042_32921" style="mask-type:luminance" maskUnits="userSpaceOnUse" x="51" y="5" width="6" height="14">
<path d="M51.5625 5.48633H54.5724V10.6701H56.1313V13.6593H54.5724V18.4836H51.5625V5.48633Z" fill="white"/>
</mask>
<g mask="url(#mask12_4042_32921)">
<path d="M56.2458 10.6699H54.5527V11.0483H56.2458V10.6699Z" fill="white" fill-opacity="0.25"/>
</g>
<defs>
<linearGradient id="paint0_linear_4042_32921" x1="1.9188" y1="18.1247" x2="5.20768" y2="6.42356" gradientUnits="userSpaceOnUse">
<stop stop-color="#4330AC"/>
<stop offset="1" stop-color="#6040EA"/>
</linearGradient>
<linearGradient id="paint1_linear_4042_32921" x1="22.3856" y1="21.7566" x2="26.1897" y2="-1.1283" gradientUnits="userSpaceOnUse">
<stop stop-color="#4935BC"/>
<stop offset="1" stop-color="#855CFF"/>
</linearGradient>
<linearGradient id="paint2_linear_4042_32921" x1="34.8761" y1="30.5429" x2="25.5991" y2="10.4985" gradientUnits="userSpaceOnUse">
<stop stop-color="#857EBF"/>
<stop offset="1" stop-color="#DDC2FE"/>
</linearGradient>
</defs>
</svg>
